<?xml version="1.0" encoding="utf-8"?>
<!-- Generator: Adobe Illustrator 27.5.0, SVG Export Plug-In . SVG Version: 6.00 Build 0)  -->
<svg version="1.1" xmlns="http://www.w3.org/2000/svg" xmlns:xlink="http://www.w3.org/1999/xlink" x="0px" y="0px"
	 viewBox="0 0 750 500" style="enable-background:new 0 0 750 500;" xml:space="preserve">
<g id="BACKGROUND">
</g>
<g id="OBJECTS">
	<g>
		<g>
			<path style="opacity:0.33;fill:#B8E5FF;" d="M641.067,298.233c-4.506,35.995-30.504,30.006-34.609,71.857
				c-1.465,14.939,9.617,24.329,15.124,37.262c6.097,14.295,3.938,27.141-4.299,36.938H165.393
				c-9.991-4.498-19.522-9.284-27.82-15.033c-11.422-7.897-20.462-17.632-25.072-30.977c-4.161-12.059-7.367-23.692,3.564-32.839
				c5.934-4.973,12.111-8.81,17.483-13.421c4.04-3.461,7.614-7.36,10.312-12.521c19.699-37.787-5.571-71.089-14.851-108.901
				c-0.895-3.674-1.715-7.385-2.368-11.109c-1.702-9.484-2.494-19.106-1.484-28.478c0.913-8.585,3.335-16.982,7.924-24.879
				c6.891-11.846,24.742-29.34,43.924-26.004c14.414,2.512,23.483,16.332,36.497,21.33c16.4,6.298,34.595,1.262,46.881-7.997
				c23.895-18.006,39.208-52.232,80.048-49.096c13.849,1.062,23.196,11.996,35.339,17.007c16.691,6.898,33.158,6.848,49.109,0.137
				c18.345-7.723,30.932-22.068,48.946-30.277c5.9-2.687,12.323-5.036,19.019-6.835c14.491-3.924,30.337-5.311,45.282-2.287
				c3.168,0.637,6.174,1.399,9.019,2.287c49.965,15.382,52.316,65.765,49.965,102.528c-1.079,16.844-14.562,45.894-4.601,63.297
				C602.47,267.627,645.425,263.426,641.067,298.233z"/>
			<g>
				<g>
					<polygon style="fill:#B8E5FF;" points="197.184,444.291 192.97,444.291 192.437,425.738 203.085,425.738 					"/>
					<polygon style="fill:#B8E5FF;" points="275.768,444.291 279.981,444.291 280.515,425.738 269.867,425.738 					"/>
				</g>
				<rect x="186.901" y="245.568" style="fill:#94D5FF;" width="99.15" height="182.299"/>
				<g>
					<g>
						<rect x="195.296" y="259.335" style="fill:#B8E5FF;" width="82.358" height="35.823"/>
						<circle style="fill:#94D5FF;" cx="236.476" cy="277.246" r="5.48"/>
					</g>
					<g>
						<rect x="195.296" y="298.982" style="fill:#B8E5FF;" width="82.358" height="35.823"/>
						<circle style="fill:#94D5FF;" cx="236.476" cy="316.894" r="5.48"/>
					</g>
					<g>
						<rect x="195.296" y="338.63" style="fill:#B8E5FF;" width="82.358" height="35.823"/>
						<circle style="fill:#94D5FF;" cx="236.476" cy="356.542" r="5.48"/>
					</g>
					<g>
						<rect x="195.296" y="378.278" style="fill:#B8E5FF;" width="82.358" height="35.823"/>
						<circle style="fill:#94D5FF;" cx="236.476" cy="396.189" r="5.48"/>
					</g>
				</g>
				<rect x="183.973" y="242.559" style="fill:#B8E5FF;" width="105.005" height="6.881"/>
			</g>
			<g>
				<g>
					<g>
						<g>
							<path style="fill:#94D5FF;" d="M223.089,121.489c-1.187-3.286,1.294-7.526,4.534-9.657c2.164-1.423,4.67-2.336,6.007-4.208
								c-0.132,2.474-0.775,4.628-2.419,6.981C229.409,117.182,226.644,119.854,223.089,121.489z"/>
							<path style="fill:#B8E5FF;" d="M223.087,122.623c0.456-1.811-1.455-3.525-2.667-4.509c-1.232-0.999-2.597-1.842-3.674-2.953
								c-2.346-2.419-2.443-7.121,0.218-9.669c-0.749,0.643,0.416,2.814,0.776,3.374c0.838,1.302,2.154,2.266,3.262,3.399
								C223.6,114.921,224.042,118.831,223.087,122.623z"/>
							<path style="fill:#B8E5FF;" d="M223.753,119.161c-0.596-1.658,1.126-3.662,2.226-4.831c1.115-1.185,2.369-2.242,3.32-3.502
								c2.067-2.736,1.775-7.257-1.008-9.241c0.779,0.488-0.171,2.775-0.474,3.376c-0.706,1.398-1.905,2.559-2.89,3.846
								C222.61,111.838,222.503,115.688,223.753,119.161z"/>
							<path style="fill:#94D5FF;" d="M222.779,118.727c-0.593-0.143-1.169-0.928-1.454-1.346c-0.549-0.807-0.861-1.709-1.016-2.637
								c-0.391-2.346,0.322-4.644,0.425-6.906c0.08-1.758-0.027-3.524-0.631-5.127c-0.304-0.807-0.81-1.473-1.259-2.194
								c-0.039-0.063,0.732,0.176,0.785,0.199c4.691,2.117,5.682,6.469,4.787,10.926c-0.28,1.392-0.475,2.763-0.911,4.159
								C223.231,116.674,222.556,117.845,222.779,118.727z"/>
						</g>
						<g>
							<polygon style="fill:#B8E5FF;" points="229.297,130.532 219.627,130.532 216.456,120.411 232.468,120.411 							"/>
							<polygon style="fill:#94D5FF;" points="229.759,131.297 219.119,131.297 219.052,129.697 229.825,129.697 							"/>
							<polygon style="fill:#94D5FF;" points="232.749,121.612 216.122,121.612 215.808,118.417 233.06,118.417 							"/>
						</g>
					</g>
					<path style="fill:#94D5FF;" d="M289.458,111.908l1.155,2.34c0.431,0.873,1.264,1.479,2.228,1.619l2.582,0.375
						c2.427,0.353,3.396,3.335,1.64,5.047l-1.869,1.821c-0.697,0.68-1.016,1.659-0.851,2.619l0.441,2.572
						c0.415,2.417-2.123,4.261-4.294,3.12l-2.31-1.214c-0.862-0.453-1.892-0.453-2.754,0l-2.31,1.214
						c-2.171,1.141-4.708-0.702-4.294-3.12l0.441-2.572c0.165-0.96-0.154-1.939-0.851-2.619l-1.868-1.821
						c-1.756-1.712-0.787-4.695,1.64-5.047l2.582-0.375c0.964-0.14,1.797-0.745,2.228-1.619l1.155-2.34
						C285.236,109.709,288.372,109.709,289.458,111.908z"/>
					<g>
						<rect x="251.248" y="92.444" style="fill:#94D5FF;" width="10.609" height="39.082"/>
						<rect x="261.565" y="97.549" style="fill:#50BCFF;" width="6.048" height="33.977"/>
						<rect x="242.547" y="106.167" style="fill:#B8E5FF;" width="8.909" height="25.358"/>
						<rect x="242.547" y="110.04" style="opacity:0.68;fill:#94D5FF;" width="8.909" height="2.941"/>
						<rect x="242.547" y="125.526" style="opacity:0.68;fill:#94D5FF;" width="8.909" height="2.941"/>
						<rect x="267.086" y="95.319" style="fill:#94D5FF;" width="7.477" height="36.206"/>
						<rect x="269.058" y="106.29" style="fill:#B8E5FF;" width="3.535" height="16.22"/>
					</g>
					<g>
						<g>
							<g>
								
									<rect x="282.391" y="140.025" transform="matrix(-1 -1.224647e-16 1.224647e-16 -1 571.0364 295.2406)" style="fill:#94D5FF;" width="6.255" height="15.191"/>
								
									<rect x="278.32" y="138.635" transform="matrix(-1 -1.224647e-16 1.224647e-16 -1 571.0364 281.6381)" style="fill:#94D5FF;" width="14.397" height="4.369"/>
							</g>
							<g>
								
									<rect x="220.029" y="140.025" transform="matrix(-1 -1.224647e-16 1.224647e-16 -1 446.3128 295.2406)" style="fill:#94D5FF;" width="6.255" height="15.191"/>
								
									<rect x="215.958" y="138.635" transform="matrix(-1 -1.224647e-16 1.224647e-16 -1 446.3129 281.6381)" style="fill:#94D5FF;" width="14.397" height="4.369"/>
							</g>
						</g>
						
							<rect x="205.22" y="131.143" transform="matrix(-1 -1.224647e-16 1.224647e-16 -1 508.6746 270.498)" style="fill:#B8E5FF;" width="98.235" height="8.212"/>
					</g>
				</g>
				<g>
					<g>
						<path style="fill:#94D5FF;" d="M177.386,178.758h-6.378c-0.228,0-0.425,0.143-0.502,0.364l-11.408,19.249
							c-0.142,0.408,0.174,0.87,0.594,0.87l11.103,0c0.228,0,0.425-0.143,0.502-0.364l6.683-19.249
							C178.123,179.219,177.807,178.758,177.386,178.758z"/>
						<polygon style="fill:#50BCFF;" points="164.967,171.05 198.541,171.05 203.069,199.283 169.495,199.283 						"/>
						<polygon style="fill:#94D5FF;" points="166.142,171.05 199.716,171.05 204.245,199.283 170.671,199.283 						"/>
						<polygon style="fill:#FFFFFF;" points="169.21,173.657 197.485,173.657 201.177,196.676 172.902,196.676 						"/>
						<polygon style="fill:#94D5FF;" points="173.949,178.076 194.163,178.076 196.438,192.258 176.224,192.258 						"/>
					</g>
					<g>
						<path style="fill:#94D5FF;" d="M228.445,189.55c0,3.62-2.04,6.76-5.04,8.33c-0.06,0.04-0.12,0.07-0.18,0.09
							c-1.26,0.64-2.68,0.99-4.19,0.99c-2.91,0-5.52-1.33-7.25-3.42c-0.14-0.16-0.27-0.33-0.39-0.51c-1.12-1.54-1.77-3.43-1.77-5.48
							c0-4.67,3.42-8.55,7.88-9.28c0.15-0.03,0.3-0.05,0.45-0.07c0.35-0.04,0.71-0.06,1.08-0.06c4.74,0,8.66,3.51,9.31,8.07
							c0.03,0.19,0.05,0.38,0.07,0.57C228.435,189.03,228.445,189.29,228.445,189.55z"/>
						<path style="fill:#B8E5FF;" d="M217.355,190.16c-0.89,1.46-2.03,2.82-3.32,3.95c-0.67,0.58-1.42,1.11-2.25,1.43
							c-0.14-0.16-0.27-0.33-0.39-0.51c1.16-0.5,2.17-1.32,3.07-2.23c1.25-1.27,2.35-2.7,3.12-4.32c0.8-1.69,1.17-3.61,0.89-5.48
							c-0.13-0.84-0.39-1.67-0.79-2.42c-0.05-0.1-0.11-0.21-0.18-0.31c0.15-0.03,0.3-0.05,0.45-0.07c0.11,0.18,0.2,0.36,0.28,0.52
							C219.735,183.76,219.065,187.36,217.355,190.16z"/>
						<path style="fill:#B8E5FF;" d="M228.415,188.78c-0.41,0.29-0.79,0.62-1.16,0.97c-2.22,2.13-3.57,5.08-3.85,8.13
							c-0.06,0.04-0.12,0.07-0.18,0.09c0.12-3.2,1.44-6.28,3.71-8.55c0.44-0.44,0.91-0.84,1.41-1.21
							C228.375,188.4,228.395,188.59,228.415,188.78z"/>
					</g>
					<g>
						<g>
							<g>
								
									<rect x="223.018" y="207.39" transform="matrix(-1 -1.224647e-16 1.224647e-16 -1 452.2908 429.9713)" style="fill:#94D5FF;" width="6.255" height="15.191"/>
								
									<rect x="218.947" y="206" transform="matrix(-1 -1.224647e-16 1.224647e-16 -1 452.2908 416.3687)" style="fill:#94D5FF;" width="14.397" height="4.369"/>
							</g>
							<g>
								
									<rect x="160.656" y="207.39" transform="matrix(-1 -1.224647e-16 1.224647e-16 -1 327.5674 429.9713)" style="fill:#94D5FF;" width="6.255" height="15.191"/>
								
									<rect x="156.585" y="206" transform="matrix(-1 -1.224647e-16 1.224647e-16 -1 327.5674 416.3687)" style="fill:#94D5FF;" width="14.397" height="4.369"/>
							</g>
						</g>
						
							<rect x="145.847" y="198.509" transform="matrix(-1 -1.224647e-16 1.224647e-16 -1 389.9291 405.2287)" style="fill:#B8E5FF;" width="98.235" height="8.212"/>
					</g>
				</g>
			</g>
			<g>
				<ellipse style="fill:#94D5FF;" cx="569.364" cy="378.612" rx="23.397" ry="22.223"/>
				<polygon style="fill:#B8E5FF;" points="592.09,381.547 546.973,381.547 549.215,444.291 589.849,444.291 				"/>
				<rect x="544.457" y="377.69" style="fill:#94D5FF;" width="51.156" height="8.051"/>
				<g>
					<path style="fill:#B8E5FF;" d="M562.712,361.192c-1.245,2.888-2.217,5.892-2.889,8.964c-0.547,2.501-0.788,5.005-0.979,7.534
						h33.882c-0.361-8.349-5.557-15.509-13.012-19.009c-2.799,0.631-5.637,1.141-8.468,1.6
						C568.424,360.739,565.573,361.102,562.712,361.192z"/>
				</g>
			</g>
		</g>
		<g>
			<rect x="330.027" y="69.064" style="fill:#FFD245;" width="152.328" height="100.772"/>
			<path style="fill:#FFD245;" d="M358.777,168.328c-0.076,0.374,0.374,24.566,0.374,24.566l13.03-24.441L358.777,168.328z"/>
			<g>
				<rect x="333.904" y="73.471" style="fill:#FFFFFF;" width="144.575" height="91.958"/>
				<g>
					<path style="opacity:0.4;fill:#50BCFF;" d="M478.477,148.802H356.091c-1.633,0-2.958-1.324-2.958-2.957V73.474h125.343V148.802
						z"/>
					<path style="opacity:0.83;fill:#FFFFFF;" d="M478.477,142.768H363.165c-0.948,0-1.716-0.768-1.716-1.716V73.474h117.029
						V142.768z"/>
					<g style="opacity:0.36;">
						<path style="fill:#004DBE;" d="M469.642,92.623c-1.418-1.25-4.235-0.858-6.099-0.9c-5.613-0.128-11.225-0.194-16.84-0.163
							c-0.312,0.002-0.589,0.204-0.592,0.468c-0.048,4.009,0.093,8.009,0.41,12.008c-2.31-2.835-4.811-5.624-7.762-8.009
							c-0.164-0.133-0.49,0.041-0.34,0.207c2.823,3.146,5.746,6.198,8.263,9.524c0.251,0.331,1.001,0.248,0.969-0.199
							c-0.311-4.339-0.452-8.69-0.376-13.036c4.453,0.035,8.906,0.08,13.358,0.162c2.2,0.041,4.434,0.002,6.627,0.153
							c2.465,0.17,1.927,2.1,2.527,3.501c0.121,0.282,0.555,0.285,0.691,0.011C471.045,95.211,470.672,93.531,469.642,92.623z"/>
						<path style="fill:#004DBE;" d="M468.764,100.853c-0.687,0.654-1.554,2.129-2.872,1.8c-0.758-0.189-0.958-1.082-1.2-1.608
							c-0.273-0.591-0.544-1.182-0.811-1.774c-0.132-0.293-0.665-0.437-0.881-0.109c-0.377,0.573-0.793,1.126-1.269,1.648
							c-0.341,0.373-1.198,1.45-1.902,1.209c-0.556-0.19-0.769-1.078-0.839-1.593c0.378-0.734,0.572-1.515,0.43-2.349
							c-0.056-0.331-0.734-0.423-0.904-0.111c-0.408,0.749-0.594,1.53-0.52,2.341c-0.142,0.24-0.302,0.474-0.484,0.699
							c-0.603,0.743-1.477,1.66-2.524,1.994c-1.375,0.439-2.222-0.673-2.55-1.614c-0.18-0.517-0.624-2.427,0.304-2.517
							c0.285-0.028,0.204-0.379-0.056-0.394c-0.166-0.01-0.332-0.02-0.497-0.03c-0.093-0.006-0.213,0.044-0.255,0.115
							c-0.65,1.109-0.706,2.403-0.154,3.55c0.487,1.013,1.52,1.941,2.96,1.771c1.444-0.17,2.554-1.25,3.367-2.158
							c0.065-0.073,0.112-0.151,0.173-0.225c0.197,0.498,0.497,0.981,0.984,1.226c1.564,0.787,3.163-1.115,4.06-2.397
							c0.282,0.643,0.563,1.287,0.879,1.917c0.313,0.622,0.778,1.11,1.626,1.233c1.812,0.263,3.061-1.121,3.338-2.421
							C469.204,100.881,468.942,100.683,468.764,100.853z"/>
						<path style="fill:#004DBE;" d="M476.832,90.053c-0.224-0.201-0.53-0.22-0.843-0.243c-0.303-0.022-0.608-0.066-0.891-0.16
							c-0.41-0.136-0.822-0.438-0.871-0.82c-0.024-0.374-0.724-0.393-0.716-0.011c0.001,0.027,0.014,0.051,0.016,0.078l-0.005,0
							c0.085,0.496,0.107,1.029-0.055,1.515c-0.083,0.248-0.205,0.484-0.383,0.697c-0.142,0.169-0.457,0.494-0.731,0.495
							c-0.261,0.001-0.317-0.347-0.346-0.508c-0.064-0.356-0.092-0.719-0.107-1.078c-0.03-0.715,0.024-1.43,0.153-2.138
							c0.025-0.138-0.266-0.176-0.299-0.038c-0.155,0.664-0.247,1.337-0.264,2.013c-0.009,0.338,0.001,0.676,0.029,1.013
							c0.02,0.25,0.035,0.505,0.155,0.739c0.099,0.193,0.273,0.358,0.53,0.408c0.337,0.065,0.647-0.103,0.894-0.272
							c0.449-0.307,0.743-0.745,0.907-1.201c0.074-0.207,0.112-0.42,0.15-0.634c0.13,0.096,0.273,0.18,0.426,0.25
							c0.347,0.157,0.728,0.241,1.117,0.292c0.392,0.051,0.814,0.105,1.131-0.132C476.919,90.25,476.914,90.127,476.832,90.053z"/>
						<path style="fill:#004DBE;" d="M436.813,122.144c-0.297,0.348-1.036,0.357-1.444,0.142c-0.543-0.286-0.781-0.871-0.973-1.345
							c-0.133-0.327-0.637-0.398-0.879-0.108c-0.447,0.535-0.893,1.07-1.34,1.605c-0.199,0.238-1.186,1.597-1.328,0.77
							c-0.215-1.257,0.076-2.695,0.388-3.922c0.118-0.464-0.747-0.678-0.867-0.211c-0.287,1.118-0.838,2.167-1.66,3.091
							c-0.625,0.703-2.028,2.156-3.27,1.902c-0.735-0.15-0.856-0.899-0.962-1.419c-0.128-0.631-0.165-1.273-0.125-1.911
							c0.081-1.29,0.512-2.546,1.235-3.691c0.193-0.306-0.358-0.587-0.56-0.28c-0.877,1.332-1.383,2.808-1.446,4.324
							c-0.045,1.095-0.083,3.1,1.423,3.599c1.5,0.497,3.072-0.779,3.945-1.619c0.359-0.345,0.67-0.718,0.957-1.101
							c0,0.003-0.001,0.006-0.001,0.01c-0.033,0.631-0.253,1.727,0.477,2.157c0.674,0.397,1.467,0.029,1.907-0.432
							c0.552-0.578,1.045-1.203,1.539-1.822c0.318,0.557,0.762,1.065,1.501,1.262c0.853,0.227,1.811-0.037,2.051-0.793
							C437.47,122.064,437.015,121.907,436.813,122.144z"/>
						<path style="fill:#004DBE;" d="M445.699,123.477c-0.135-0.223-0.437-0.405-0.651-0.581c-0.25-0.205-0.5-0.41-0.75-0.615
							c-0.093-0.076-0.188-0.15-0.281-0.227c0.069-0.166,0.149-0.329,0.214-0.496c0.384-0.986,0.658-2.004,0.655-3.043
							c-0.001-0.252-0.447-0.255-0.473-0.007c-0.105,1.014-0.492,1.983-0.973,2.916c-0.02,0.039-0.044,0.076-0.064,0.115
							c-0.183-0.147-0.363-0.298-0.549-0.442l-3.001-2.323c-0.292-0.226-0.723,0.11-0.451,0.356
							c0.938,0.846,1.875,1.693,2.813,2.539c0.245,0.221,0.501,0.435,0.753,0.652c-0.083,0.144-0.161,0.291-0.243,0.435
							c-0.274,0.482-0.586,0.986-0.78,1.493c-0.163,0.427,0.616,0.726,0.885,0.323c0.311-0.467,0.539-1,0.773-1.495
							c0.023-0.049,0.042-0.1,0.065-0.15l0.659,0.561c0.243,0.207,0.483,0.488,0.82,0.584
							C445.554,124.194,445.883,123.781,445.699,123.477z"/>
						<path style="fill:#004DBE;" d="M471.226,119.151c-0.128-0.176-0.414-0.093-0.443,0.091c-0.127,0.808-0.712,1.798-1.752,2.006
							c-1.231,0.246-2.312-0.703-2.271-1.669c0.022-0.533-0.993-0.682-1.149-0.146c-0.255,0.881-0.665,2.328-2.021,2.409
							c-1.937,0.115-2.224-1.925-2.088-3.055c0.055-0.457-0.854-0.575-0.978-0.124c-0.346,1.258-1.313,2.631-2.848,3.116
							c-2.284,0.722-2.567-1.655-2.471-2.933c0.026-0.424-0.815-0.548-0.917-0.117c-0.008,0.032-0.008,0.069-0.015,0.102h-0.004
							c0.001,0.01-0.002,0.023-0.001,0.033c-0.052,0.264-0.073,0.549-0.07,0.845c-0.13,0.643-0.441,1.313-1.013,1.643
							c-0.233,0.135-0.664,0.259-0.843,0.134c-0.157-0.109-0.097-0.574-0.086-0.774c0.032-0.57,0.253-1.096,0.601-1.586
							c0.135-0.19-0.198-0.351-0.352-0.176c-0.553,0.63-1.831,3.261-0.018,3.394c0.783,0.057,1.481-0.68,1.868-1.151
							c0.034-0.041,0.055-0.086,0.087-0.128c0.37,1.004,1.175,1.814,2.625,1.716c1.554-0.105,2.742-1.016,3.525-2.11
							c0.313,1.065,1.119,1.971,2.645,2.107c1.461,0.131,2.346-0.682,2.901-1.655c0.637,0.79,1.749,1.312,2.964,1.143
							C470.793,122.031,472.173,120.456,471.226,119.151z"/>
						<path style="fill:#004DBE;" d="M417.618,77.822c-0.057-0.212-0.381-0.325-0.608-0.214
							c-7.283,3.552-14.612,7.086-21.728,10.866c-0.254-0.197-0.521-0.38-0.818-0.518c-0.107-0.05-0.278-0.034-0.337,0.067
							c-0.107,0.181-0.145,0.341-0.006,0.517c0.081,0.102,0.265,0.042,0.239-0.078c0.001-0.005,0.003-0.009,0.004-0.014
							c0.12,0.108,0.241,0.215,0.363,0.32c-0.66,0.352-1.329,0.694-1.985,1.051c-0.177,0.097-0.025,0.331,0.164,0.241
							c0.709-0.339,1.409-0.689,2.116-1.03c0.281,0.248,0.552,0.503,0.788,0.789c0.469,0.568,0.848,1.188,1.11,1.84
							c0.162,0.405,0.327,0.877,0.408,1.352c-3.009-0.19-6.007-0.465-9.017-0.778c-0.431-0.045-0.549,0.559-0.118,0.625
							c3.016,0.463,6.083,0.76,9.169,0.943c-0.046,0.475-0.234,0.919-0.676,1.259c-0.092,0.071-0.058,0.217,0.072,0.242
							c0.838,0.16,1.219-0.585,1.321-1.144c0.019-0.104,0.017-0.211,0.024-0.317c7.117,0.373,14.33,0.075,21.311-0.715
							c0.185-0.021,0.34-0.201,0.336-0.349C419.622,87.745,418.95,82.736,417.618,77.822z M403.565,93.256
							c-1.842-0.015-3.672-0.096-5.497-0.201c-0.065-0.403-0.181-0.804-0.315-1.176c-0.278-0.775-0.7-1.519-1.251-2.19
							c-0.262-0.319-0.556-0.648-0.887-0.948c7.098-3.434,14.129-6.954,21.295-10.295c1.091,4.622,1.77,9.296,1.928,14.004
							C413.777,93.019,408.673,93.296,403.565,93.256z"/>
						<path style="fill:#004DBE;" d="M428.26,82.487c-0.477,0.029-0.939,0.242-1.372,0.395c-0.451,0.159-0.894,0.334-1.338,0.505
							c-0.91,0.351-1.888,0.655-2.733,1.103c-0.132,0.07-0.059,0.258,0.107,0.219c0.952-0.222,1.86-0.614,2.767-0.938
							c0.451-0.161,0.905-0.315,1.349-0.489c0.437-0.171,0.964-0.317,1.314-0.599C428.431,82.618,428.383,82.48,428.26,82.487z"/>
						<path style="fill:#004DBE;" d="M431.792,80.95c-0.313-0.172-0.716-0.094-1.062-0.058c-0.455,0.048-0.909,0.095-1.364,0.143
							c-0.455,0.048-0.909,0.095-1.364,0.143c-0.228,0.024-0.453,0.045-0.678,0.085c-0.23,0.042-0.511,0.054-0.708,0.165
							c-0.152,0.086-0.128,0.254,0.042,0.31c0.172,0.057,0.36,0.035,0.542,0.035c0.197-0.001,0.39-0.001,0.586-0.016
							c0.391-0.03,0.783-0.06,1.174-0.09l1.174-0.09c0.36-0.028,0.738-0.087,1.1-0.08c0,0,0.009,0.001,0.011,0.001
							c-0.048,0.119-0.115,0.234-0.18,0.347c-0.143,0.25-0.304,0.493-0.481,0.729c-0.169,0.225-0.354,0.443-0.552,0.653
							c-0.103,0.109-0.215,0.212-0.314,0.324c-0.11,0.124-0.164,0.248-0.239,0.387c-0.108,0.2,0.212,0.347,0.408,0.268
							c0.397-0.16,0.634-0.395,0.899-0.681c0.247-0.266,0.471-0.545,0.672-0.836c0.197-0.286,0.371-0.583,0.523-0.887
							C432.13,81.504,432.154,81.149,431.792,80.95z"/>
						<path style="fill:#004DBE;" d="M451.811,79.498c-0.348-0.059-0.704-0.094-1.048-0.163c-0.383-0.077-0.687-0.241-1.052-0.342
							c-0.418-0.116-0.821-0.067-1.175,0.147c-0.394,0.237-0.606,0.613-0.926,0.906c-0.793,0.726-1.518-0.102-1.882-0.73
							c-0.185-0.319-0.736-0.151-0.763,0.157c-0.049,0.551-0.831,0.73-1.333,0.492c-0.475-0.225-0.676-0.651-0.693-1.088
							c-0.012-0.318-0.512-0.45-0.728-0.174c-0.497,0.632-1.076,1.228-1.771,1.721c-0.532,0.377-1.098,0.092-1.308-0.393
							c-0.179-0.412-0.149-0.849,0.037-1.251c0.134-0.39-0.548-0.541-0.724-0.176c-0.221,0.684-0.648,1.286-1.316,1.741
							c-0.476,0.324-1.374,0.561-1.746,0.022c-0.259-0.374-0.302-1.033-0.247-1.456c0.007-0.051-0.086-0.058-0.104-0.013
							c-0.238,0.591-0.587,1.104-0.222,1.732c0.258,0.445,0.812,0.739,1.416,0.694c0.846-0.063,1.563-0.546,2.095-1.142
							c0.163,0.568,0.573,1.056,1.329,1.185c1.076,0.184,2.074-0.842,2.743-1.682c0.254,0.536,0.715,0.991,1.47,1.084
							c0.645,0.079,1.226-0.172,1.579-0.569c0.65,0.733,1.631,1.283,2.625,0.484c0.501-0.403,0.759-1.23,1.575-0.95
							c0.772,0.265,1.432,0.492,2.219,0.106C452.014,79.766,452.014,79.533,451.811,79.498z"/>
						<path style="fill:#004DBE;" d="M453.237,83.679c-0.645-0.155-1.354-0.038-2.026-0.167c-0.696-0.134-1.379-0.321-2.094-0.38
							c-0.671-0.056-1.315,0.041-1.902,0.319c-0.364,0.172-1.786,1.103-1.991,0.325c-0.072-0.272-0.487-0.339-0.72-0.168
							c-0.658,0.481-1.455,1.021-2.398,0.951c-0.832-0.062-1.6-0.882-0.767-1.411c0.318-0.202-0.094-0.666-0.424-0.469
							c-0.984,0.59-0.82,1.806,0.214,2.3c1.235,0.59,2.532,0.073,3.553-0.575c0.31,0.275,0.794,0.408,1.273,0.375
							c0.964-0.066,1.58-0.823,2.539-0.9c0.92-0.074,1.825,0.262,2.711,0.411c0.721,0.121,1.693,0.262,2.175-0.304
							C453.474,83.874,453.385,83.715,453.237,83.679z"/>
					</g>
				</g>
				<g>
					<path style="fill:#004DBE;" d="M431.932,165.429h-70.089c1.014-5.265,4.766-22.51,10.466-26.374
						c4.75-3.204,10.45-5.973,18.162-7.004c0.515-0.08,1.031-0.129,1.562-0.177c0.708-0.081,1.417-0.145,2.174-0.177
						c0,0,0,0,0.016,0c2.174-0.113,4.492-0.113,6.972,0.064h0.097c0.499,0.032,0.998,0.081,1.497,0.145
						c0.467,0.032,0.934,0.097,1.401,0.161c12.414,1.723,23.17,9.097,25.263,19.499c0.322,1.594,0.596,3.027,0.837,4.315v0.016
						C431.271,161.001,431.722,163.964,431.932,165.429z"/>
					<path style="fill:#50BCFF;" d="M408.665,165.429H391.05c-0.467-4.685-1.674-19.627-1.819-22.236
						c-0.306-5.474-0.08-8.357,1.079-9.822c0.435-0.548,0.998-0.902,1.723-1.111c0.773-0.209,1.723-0.274,2.882-0.242
						c0.918,0.016,1.964,0.097,3.156,0.177c0.612,0.048,1.175,0.097,1.691,0.161c1.224,0.129,2.222,0.29,3.027,0.515
						c0.902,0.242,1.594,0.547,2.125,0.934c1.417,0.998,1.739,2.576,2.125,5.088C407.651,143,408.601,160.486,408.665,165.429z"/>
					<rect x="390.981" y="122.168" style="fill:#E79F8B;" width="12.694" height="11.322"/>
					<g>
						<path style="fill:#E79F8B;" d="M433.333,124.162c-0.236-4.13,0.403-8.4,2.468-11.985c0.473-0.822,1.548-1.682,2.229-1.022
							c0.299,0.289,0.335,0.749,0.347,1.165c0.086,3.187-0.214,6.384-0.891,9.5c0.498-1.063,1.852-1.614,2.968-1.253
							c1.117,0.362,1.883,1.556,1.801,2.727c0.295-1.187,2.114-1.332,2.989-0.479c0.875,0.854,1.02,2.195,1.031,3.418
							c0.442-0.602,1.465-0.433,1.936,0.147c0.471,0.58,0.532,1.384,0.526,2.132c-0.018,2.286-0.488,4.617-1.702,6.555
							c-1.214,1.938-3.241,3.435-5.515,3.672C434.325,139.487,433.614,129.087,433.333,124.162z"/>
						<path style="fill:#E79F8B;" d="M436.363,136.311c0,0-5.995-3.389-3.91-7.168c2.085-3.78,8.211-1.825,6.908,0.391
							c-1.303,2.216-4.171,1.825-4.171,1.825L436.363,136.311z"/>
					</g>
					<path style="fill:#FFFFFF;" d="M390.566,130.394c0.674-0.071,3.957,2.438,7.488,2.257c3.531-0.181,5.293-1.806,5.818-2.347
						c0.524-0.542,3.417,5.237,2.98,5.869c-0.438,0.632-1.73,3.102-3.018,2.65c-1.289-0.451-4.926-4.801-4.926-4.801
						s-3.3,5.261-4.535,5.261c-1.235,0-5.207-1.847-5.419-4.736C388.741,131.658,389.703,130.484,390.566,130.394z"/>
					<polygon style="fill:#004DBE;" points="447.968,136.318 447.711,165.429 428.583,165.429 430.289,155.897 430.289,155.881 
						433.88,135.915 435.796,135.963 435.812,135.963 435.989,135.98 436.279,135.98 446.133,136.269 					"/>
					<g>
						<path style="fill:#004DBE;" d="M411.847,91.813c-0.354-0.251-0.795-0.224-1.229,0.198c-0.366,0.356-0.761,1.024-0.903,1.508
							c-0.5,1.705-0.309,3.584-0.029,5.21c0.258,1.497,0.681,2.986,1.381,4.285c0.03,0.054,0.058,0.108,0.087,0.161
							c0.338,0.598,0.745,1.146,1.22,1.638c0.095,0.035,0.19,0.07,0.302,0.066c0.33-0.013,0.647-0.225,0.903-0.471
							c1.714-1.64,1.33-4.253,1.006-6.146c-0.382-2.225-1.203-4.319-2.42-6.113C412.071,92.009,411.964,91.896,411.847,91.813z"/>
						<path style="fill:#E79F8B;" d="M414.105,106.491c0,10.866-1.72,20.194-13.113,20.922
							c-14.69,0.938-20.679-10.056-20.679-20.922s7.565-19.675,16.896-19.675C406.54,86.816,414.105,95.625,414.105,106.491z"/>
						<path style="fill:#FFFFFF;" d="M396.141,116.366c0.426-0.73,2.715-0.551,5.388-0.854c3.029-0.343,5.142-0.922,5.671-0.628
							c0.996,0.553-1.058,4.974-4.974,5.344C399.438,120.492,395.366,117.694,396.141,116.366z"/>
						<path style="fill:#004DBE;" d="M393.308,92.504c3.109,1.871,6.195,3.818,9.554,5.189c3.822,1.561,7.999,2.078,11.558-0.46
							c0.821-0.585,1.842-1.816,0.593-2.467c-0.818-0.426-1.909-0.322-2.801-0.402c1.011,0.091,2.086-0.132,2.884-0.764
							c0.797-0.633,1.255-1.712,0.985-2.667c-0.199-0.705-0.747-1.257-1.331-1.708c-1.778-1.37-4.016-2.047-6.244-2.494
							c-0.388-0.078-0.779-0.14-1.17-0.205c0.315-0.433,0.599-0.914,0.508-1.42c-0.097-0.538-0.589-0.914-1.066-1.206
							c-3.801-2.322-8.596-2.46-13.13-2.466c-3.194-0.004-6.53,0.055-9.381,1.477c-1.326,0.661-2.695,1.77-2.838,3.192
							c-3.092,0.238-5.752,2.616-6.801,5.43c-1.05,2.815-0.688,5.955,0.374,8.736s2.365,5.937,3.38,6.525
							c1.016,0.588,1.069-0.107,2.299,0.481c1.23,0.588,1.315,2.344,2.246,2.406s0.91-2.434,1.163-3.593
							c0.512-2.353,0.49-4.776,1.095-7.113c0.654-2.522,2.063-4.89,4.011-6.825c0.308-0.306,0.663-0.621,1.058-0.799
							c0.1-0.045,1.126,0.203,1.297,0.251c0.582,0.163,1.128,0.521,1.641,0.83C393.23,92.457,393.269,92.48,393.308,92.504z"/>
						<g>
							<path style="fill:#E79F8B;" d="M380.443,107.171c-1.22-2.22-3.053-3.719-4.838-2.185c-0.58,0.499-0.884,1.447-0.907,2.399
								c-0.023,0.952,0.204,1.91,0.513,2.798c0.779,2.242,2.162,4.219,3.886,5.046c0.652,0.313,1.415,0.439,1.955-0.066
								c0.741-0.692,0.88-2.107,0.819-3.281C381.797,110.448,381.256,108.65,380.443,107.171z"/>
							<path style="fill:#C72C19;" d="M376.031,107.324c0.144-0.244,0.355-0.396,0.585-0.451c0.532-0.126,1.089,0.231,1.5,0.724
								c0.426,0.511,0.789,1.163,1.105,1.8c0.331,0.665,0.582,1.401,0.721,2.168c0.028,0.153-0.157,0.21-0.194,0.059
								c-0.296-1.238-0.931-2.39-1.606-3.322c-0.104-0.143-0.218-0.278-0.337-0.405c-0.146,0.602-0.158,1.264-0.042,1.904
								c0.141,0.772,0.426,1.42,0.761,2.077c0.034,0.066-0.022,0.149-0.071,0.094c-0.926-1.044-1.297-2.862-0.848-4.274
								c-0.205-0.175-0.429-0.298-0.669-0.319c-0.375-0.033-0.823,0.282-0.926,0.786c-0.019,0.094-0.143,0.064-0.145-0.037
								C375.858,107.826,375.895,107.555,376.031,107.324z"/>
						</g>
						<g>
							<path d="M415.844,101.861c-0.393-0.878-1.255-1.381-2.134-1.356c-0.952,0.027-1.912,0.085-2.88,0.128
								c-1.663,0.074-3.37,0.087-5.078,0.257c-1.229,0.122-2.214,0.683-2.285,2.095c-0.001,0.018,0,0.036-0.001,0.054
								c-0.003-0.002-0.007-0.005-0.01-0.007c-0.52-0.271-1.099-0.314-1.661-0.166c-0.565,0.149-1.052,0.463-1.487,0.86
								c-0.004,0.004-0.008,0.008-0.012,0.012c-0.03-0.273-0.054-0.547-0.093-0.817c-0.209-1.425-1.287-1.94-2.603-1.999
								c-1.879-0.084-3.802-0.004-5.743,0.01c-1.159,0.008-2.332,0-3.514,0.026c-1.111,0.024-2.161,0.648-2.569,1.675
								c-0.232,0.582-0.271,1.218-0.221,1.847c-0.024,0.003-0.047,0.006-0.072,0.009c-0.304,0.038-0.607,0.088-0.91,0.133
								c-0.546,0.08-1.092,0.158-1.639,0.235c-0.544,0.076-1.084,0.183-1.626,0.276c-0.277,0.048-0.586,0.083-0.843,0.201
								c-0.169,0.077-0.379,0.294-0.246,0.497c0.261,0.403,1.024,0.223,1.431,0.19c0.53-0.042,1.061-0.081,1.589-0.147
								c0.529-0.066,1.058-0.135,1.587-0.204c0.267-0.035,0.535-0.066,0.802-0.107c0.026-0.004,0.05-0.008,0.075-0.012
								c0.301,1.877,0.674,3.821,1.308,5.584c0.261,0.726,0.597,1.441,1.374,1.738c0.719,0.274,1.567,0.194,2.318,0.18
								c0.984-0.019,1.961-0.075,2.926-0.166c1.745-0.165,3.559-0.38,5.199-0.887c1.569-0.485,1.739-1.884,1.707-3.336
								c-0.028-1.263-0.05-2.557-0.139-3.836c0.455-0.35,0.953-0.658,1.479-0.818c0.193-0.059,0.36-0.089,0.56-0.082
								c0.104,0.004,0.099-0.001,0.202,0.026c0.038,0.01,0.075,0.023,0.113,0.034c0.018,0.007,0.037,0.013,0.055,0.02
								c-0.036-0.018-0.036-0.019,0-0.001c0.078,0.037,0.152,0.084,0.222,0.135c0.009,0.007,0.018,0.014,0.025,0.021
								c0.035,0.034,0.07,0.068,0.102,0.105c0.008,0.009,0.072,0.095,0.044,0.053c-0.035-0.052,0.039,0.075,0.046,0.086
								c0.021,0.035,0.036,0.073,0.009,0.013c0.046,0.101,0.064,0.16,0.121,0.244c0.021,0.031,0.054,0.038,0.078,0.064
								c0.027,1.313,0.131,2.634,0.224,3.924c0.103,1.427,0.395,2.772,1.926,3.02c1.556,0.252,3.196,0.198,4.725,0.111
								c0.827-0.047,1.646-0.128,2.456-0.241c0.61-0.086,1.295-0.124,1.841-0.458c0.583-0.357,0.788-1.025,0.932-1.691
								c0.382-1.756,0.511-3.663,0.593-5.458C416.181,103.228,416.129,102.498,415.844,101.861z"/>
							<path style="fill:#FFFFFF;" d="M399.433,109.694c-0.077,0.76-0.442,1.093-1.156,1.264c-2.69,0.644-5.733,0.996-8.623,0.854
								c-0.999-0.049-1.246-0.517-1.573-1.379c-0.288-0.758-0.518-1.538-0.698-2.331c-0.287-1.263-0.699-2.553-0.634-3.863
								c0.086-1.736,0.838-2.004,2.479-2.011c0.785-0.004,1.565-0.007,2.339-0.011c1.534-0.007,3.048-0.003,4.542-0.026
								c0.615-0.01,1.246-0.067,1.852,0.004c0.712,0.084,0.999,0.331,1.093,1.058c0.189,1.468,0.268,2.96,0.341,4.435
								C399.427,108.348,399.5,109.033,399.433,109.694z"/>
							<path style="fill:#FFFFFF;" d="M415.03,106.768c-0.078,0.715-0.196,1.425-0.361,2.124c-0.189,0.798-0.346,1.241-1.138,1.404
								c-2.362,0.487-5.017,0.555-7.51,0.298c-0.682-0.07-1.055-0.345-1.197-1.072c-0.124-0.633-0.117-1.308-0.146-1.952
								c-0.065-1.441-0.125-2.898-0.079-4.34c0.023-0.714,0.272-0.971,0.932-1.095c0.556-0.104,1.14-0.086,1.699-0.112
								c1.334-0.063,2.65-0.151,3.951-0.228c0.645-0.038,1.285-0.076,1.922-0.113c1.306-0.077,1.914,0.121,2.116,1.642
								C415.372,104.469,415.154,105.633,415.03,106.768z"/>
						</g>
					</g>
				</g>
				<g>
					<g>
						<path style="fill:#D44459;" d="M348.752,157.211c0,2.48-2.01,4.49-4.49,4.49c-2.48,0-4.49-2.01-4.49-4.49
							c0-2.48,2.01-4.49,4.49-4.49C346.742,152.721,348.752,154.731,348.752,157.211z"/>
					</g>
				</g>
			</g>
		</g>
		<g>
			<path style="fill:#004DBE;" d="M301.601,357.869c1.225,0,2.082,0.192,2.786,1.295c0.423,0.662,0.61,1.446,0.68,2.2
				c0.06,0.645-0.144,1.502,0.397,1.89c0.837,0.599,2.417,0.613,3.367,0.481c1.705-0.236,2.523-1.1,1.863-2.74
				c-0.633-1.573-1.898-2.814-3.408-3.557c-1.155-0.569-2.446-1.048-3.736-1.103c-0.57-0.024-1.021,0.154-1.452,0.515
				C301.884,357.028,301.271,357.589,301.601,357.869z"/>
			<path style="fill:#004DBE;" d="M286.443,376.409c-2.735-0.896-7.57,9.17-8.74,10.835c-4.567,6.497-7.73,13.82-9.922,21.428
				c-2.954,10.253-6.021,20.583-4.83,31.366c0.771,6.983,5.187,12.068,12.707,11.276c3.567-0.375,10.488-0.948,13.438-2.997
				c1.345-0.935,1.436-2.155,0.271-3.812c-1.187-1.689-2.047-1.337-4.078-0.934c-3.836,0.761-7.145,1.789-10.453-1.18
				c-3.253-2.92-3.602-8.063-3.426-12.192c0.257-6.055,1.445-11.936,3.039-17.82c2.009-7.415,5.026-14.117,7.806-21.228
				c1.23-3.148,3.004-6.465,3.71-9.771c0.421-1.975-0.03-3.542,0.672-5.378C286.303,375.953,285.895,375.913,286.443,376.409z"/>
			<path style="opacity:0.38;fill:#50BCFF;" d="M272.469,448.993c-1.639-1.433-2.832-3.289-3.67-5.285
				c-1.885-4.489-2.157-9.568-2.006-14.376c0.168-5.339,0.956-10.655,1.833-15.917c0.735-4.407,1.614-8.793,2.765-13.111
				c0.433-1.626,0.918-3.232,1.448-4.819c-2.089,4.219-3.751,8.648-5.059,13.185c-2.954,10.253-6.021,20.583-4.829,31.366
				c0.771,6.983,5.187,12.068,12.706,11.277c0.224-0.024,0.462-0.048,0.711-0.073C274.947,450.742,273.627,450.006,272.469,448.993z
				"/>
			<g>
				<path style="fill:#FFD245;" d="M338.328,448.169c-1.832,1.775-15.584,3.945-28.336,4.594c-2.663,0.127-5.256,0.197-7.707,0.183
					c-6.045-0.028-13.569,0.197-15.668-1.508c-5.002-4.044-17.261-73.143,3.917-85.289c4.847-2.776,16.359-4.382,20.811-4.185
					c0.535,0.028,1.057,0.056,1.564,0.127c14.006,1.634,21.868,17.345,25.278,40.312
					C342.78,433.262,341.498,445.112,338.328,448.169z"/>
				<path style="opacity:0.51;fill:#F59711;" d="M309.993,452.76c-2.66,0.13-5.26,0.2-7.71,0.19c-6.04-0.03-13.57,0.19-15.67-1.51
					c-5-4.05-17.26-73.14,3.92-85.29c2.15-1.23,5.6-2.23,9.17-2.95c1.76-0.35,3.56-0.64,5.23-0.84c2.59-0.32,4.9-0.46,6.41-0.4
					c0.54,0.03,1.06,0.06,1.57,0.13c-5.42,0.52-9.78,4.37-11.84,10.95C294.953,392.61,301.143,428.82,309.993,452.76z"/>
				<path style="opacity:0.5;fill:#F55E11;" d="M304.933,362.36c-2,1.11-3.84,2.45-5.39,4.16c-3.41,3.76-5.73,8.63-7.27,13.44
					c-1.55,4.83-2.35,9.88-2.68,14.94c-0.36,5.37,0.22,10.68,0.55,16.04c0.37,6.02,1.45,11.85,2.05,17.84
					c0.04,0.44-1.29,0.8-1.68,0.57c-0.45,0.11-0.93,0.11-0.99-0.12c-0.87-3.4-1.12-7.02-1.55-10.5c-0.41-3.42-0.73-6.86-0.92-10.3
					c-0.58-10.53-0.23-21.49,3.58-31.45c1.84-4.81,4.48-9.81,8.41-13.23c0.22-0.19,0.43-0.37,0.66-0.55
					C301.463,362.85,303.263,362.56,304.933,362.36z"/>
			</g>
			<path style="fill:#004DBE;" d="M329.785,387.388c-0.14-0.817-0.404-1.768-1.052-2.282c-0.74-0.587-1.889-0.554-2.787-0.549
				c-2.796,0.018-5.72,0.166-8.773,0.452c-1.351,0.127-2.81,0.181-4.189,0.527c-0.307,0.077-1.855,0.046-2.358,0.925
				c-0.239,0.418-0.096,2.202,0.001,3.732c0.109,1.725,0.229,3.198,1.02,3.487c0.34,0.005,0.643,0.135,0.97,0.155
				c0.367,0.023,0.791-0.073,1.16-0.108c0.798-0.076,1.587-0.153,2.367-0.233c1.501-0.153,2.968-0.312,4.404-0.477
				c2.749-0.315,5.384-0.647,7.911-0.986c0.586-0.079,1.203-0.273,1.452-0.934c0.156-0.414,0.153-0.872,0.133-1.311
				C330.007,388.979,329.92,388.177,329.785,387.388z"/>
			<path style="fill:#50BCFF;" d="M295.688,365.144c-1.02,0.056-0.16-5.834,0.724-7.022c1.455-1.955,4.035-2.547,6.339-2.79
				c2.662-0.281,8.055,2.467,7.983,5.882c-1.569-2.83-6.544-5.887-9.273-2.563c-1.189,1.448,0.045,3.708-0.743,4.896
				C299.7,365.081,296.708,365.088,295.688,365.144z"/>
			<g>
				<path style="fill:#50BCFF;" d="M345.119,449.437c-1.606,1.212-15.612,3.551-24.884,3.734c-3.325,0.07-6.045-0.141-7.369-0.775
					c-2.917-1.367-4.734-14.4-4.354-27.73c0.282-9.863,3.424-18.487,9.525-21.248c2.762-1.254,5.453-1.846,8.003-1.86
					c1.099-0.014,2.17,0.099,3.213,0.296c9.102,1.733,15.866,11.018,17.317,23.023C348.557,441.448,347.317,447.803,345.119,449.437
					z"/>
				<path style="opacity:0.54;fill:#004DBE;" d="M329.253,401.854c-3.663,0.395-6.2,3.001-6.82,4.129
					c-3.353,6.101-4.269,13.724-4.481,20.811c-0.254,8.172-0.028,18.064,2.283,26.377c-3.325,0.07-6.045-0.141-7.369-0.775
					c-2.917-1.367-4.734-14.4-4.354-27.73c0.282-9.863,3.424-18.487,9.525-21.248c2.762-1.254,5.453-1.846,8.003-1.86
					C327.14,401.544,328.211,401.657,329.253,401.854z"/>
			</g>
			<path style="fill:#004DBE;" d="M290.78,428.137c1.656-0.021,2.328,5.263,1.948,5.773c-0.38,0.51-2.479,0.688-3.009,0.319
				C289.188,433.86,289.125,428.158,290.78,428.137z"/>
		</g>
		<g>
			<g>
				<g>
					<polygon points="414.909,453.024 411.174,453.024 423.796,341.242 434.19,341.242 					"/>
					<polygon points="539.279,453.024 543.015,453.024 530.392,341.242 519.998,341.242 					"/>
					<polygon points="513.185,453.024 516.921,453.024 504.298,341.242 493.904,341.242 					"/>
					<polygon points="439.63,453.024 435.894,453.024 448.517,341.242 458.911,341.242 					"/>
				</g>
				<polygon style="fill:#004DBE;" points="550.868,214.086 531.142,328.556 484.954,328.556 504.68,214.086 				"/>
				<polygon style="opacity:0.45;fill:#004DBE;" points="545.232,214.086 525.506,328.556 484.954,328.556 504.68,214.086 				"/>
				<rect x="422.03" y="328.557" style="fill:#004DBE;" width="109.113" height="15.409"/>
				<rect x="422.03" y="328.557" style="opacity:0.45;fill:#004DBE;" width="39.174" height="15.409"/>
			</g>
			<g>
				<g>
					<defs>
						<path id="XMLID_14_" d="M391.485,382.714c0,0-19.733,3.908-15.126,8.498c4.607,4.59,30.854,8.982,32.119,7.23
							c1.264-1.752,5.161-14.768,5.161-14.768l-18.222-8.231L391.485,382.714z"/>
					</defs>
					<use xlink:href="#XMLID_14_"  style="overflow:visible;fill:#FFFFFF;"/>
					<clipPath id="XMLID_00000105398426944932562060000003807396763730878616_">
						<use xlink:href="#XMLID_14_"  style="overflow:visible;"/>
					</clipPath>
					<path style="clip-path:url(#XMLID_00000105398426944932562060000003807396763730878616_);fill:#50BCFF;" d="M403.135,395.052
						c2.294-1.724,4.778-3.425,7.629-3.761c0.522-0.061,1.157-0.021,1.424,0.432c0.137,0.233,0.136,0.521,0.11,0.79
						c-0.149,1.525-0.968,2.897-1.854,4.146c-0.903,1.272-1.912,2.493-3.172,3.411c-1.26,0.919-2.8,1.52-4.357,1.438
						c-1.171-0.062-3.914-1.005-3.831-2.555C399.155,397.578,402.136,395.803,403.135,395.052z"/>
					<path style="clip-path:url(#XMLID_00000105398426944932562060000003807396763730878616_);fill:#50BCFF;" d="M384.432,393.018
						c0.1,1.412-0.028,3.03-1.13,3.919c-1.174,0.948-2.924,0.627-4.285-0.025c-1.872-0.896-3.504-2.36-4.418-4.223
						c-0.914-1.864-1.058-4.133-0.202-6.025c0.323-0.715,0.778-1.364,1.267-1.978c0.661-0.828,1.415-1.619,2.372-2.075
						c0.848-0.404,2.261-0.634,2.985,0.102c0.697,0.708,1.201,2.148,1.602,3.053C383.636,388.056,384.255,390.52,384.432,393.018z"
						/>
					<path style="opacity:0.24;clip-path:url(#XMLID_00000105398426944932562060000003807396763730878616_);fill:#50BCFF;" d="
						M387.628,394.898c3.709,0.885,7.434,1.044,11.092,0.942c1.926-0.054,4.174-0.434,4.726-2.343
						c0.425-1.469-0.388-3.217-1.343-4.617c-1.591-2.334-3.669-4.32-5.989-5.725c-0.968-0.586-1.985-1.079-2.878-1.81
						c-0.893-0.731-1.673-1.769-1.815-2.899c-0.15-1.193,0.454-2.262,1.311-2.867c0.857-0.605,1.934-0.819,3.003-0.95
						c4.719-0.576,10.002,0.406,14.22,3.738c4.217,3.332,7.001,9.309,5.771,14.145c-0.661,2.599-2.353,4.625-4.292,6.191
						c-4.604,3.718-10.863,5.178-17.097,3.989c-4.292-0.818-8.54-2.886-12.206-5.867c-1.718-1.397-5.776-4.036-7.002-5.971
						c-1.852-2.923,2.843,0.483,3.789,1.061C381.387,393.424,384.962,394.262,387.628,394.898z"/>
				</g>
				<g>
					<defs>
						<path id="XMLID_13_" d="M417.714,394.143c0,0-16.511,11.491-10.45,13.849c6.061,2.358,31.867-4.141,32.323-6.253
							c0.456-2.112-1.192-15.598-1.192-15.598l-19.993-0.236L417.714,394.143z"/>
					</defs>
					<use xlink:href="#XMLID_13_"  style="overflow:visible;fill:#FFFFFF;"/>
					<clipPath id="XMLID_00000149380608591761699450000000301003471933889455_">
						<use xlink:href="#XMLID_13_"  style="overflow:visible;"/>
					</clipPath>
					<path style="clip-path:url(#XMLID_00000149380608591761699450000000301003471933889455_);fill:#50BCFF;" d="M433.333,400.775
						c1.411-2.499,3.004-5.053,5.481-6.504c0.454-0.266,1.052-0.483,1.478-0.174c0.219,0.159,0.333,0.423,0.417,0.68
						c0.475,1.456,0.275,3.042-0.037,4.542c-0.317,1.527-0.752,3.05-1.539,4.397c-0.786,1.347-1.956,2.515-3.415,3.064
						c-1.098,0.413-3.988,0.648-4.534-0.805C430.699,404.685,432.718,401.863,433.333,400.775z"/>
					<path style="clip-path:url(#XMLID_00000149380608591761699450000000301003471933889455_);fill:#50BCFF;" d="M415.383,406.41
						c0.658,1.254,1.189,2.787,0.536,4.043c-0.696,1.339-2.428,1.746-3.936,1.695c-2.075-0.071-4.156-0.757-5.741-2.098
						c-1.585-1.341-2.626-3.363-2.601-5.438c0.01-0.785,0.166-1.561,0.368-2.32c0.273-1.024,0.648-2.051,1.341-2.852
						c0.615-0.71,1.817-1.487,2.776-1.103c0.922,0.37,1.962,1.486,2.692,2.155C412.664,402.183,414.219,404.192,415.383,406.41z"/>
					<path style="opacity:0.24;clip-path:url(#XMLID_00000149380608591761699450000000301003471933889455_);fill:#50BCFF;" d="
						M419.064,406.851c3.753-0.676,7.229-2.024,10.539-3.583c1.743-0.821,3.65-2.07,3.39-4.041c-0.2-1.516-1.646-2.792-3.081-3.691
						c-2.393-1.5-5.093-2.487-7.782-2.844c-1.122-0.149-2.25-0.193-3.362-0.504c-1.111-0.312-2.242-0.95-2.825-1.928
						c-0.616-1.033-0.49-2.254,0.052-3.152c0.542-0.898,1.443-1.526,2.37-2.073c4.092-2.419,9.326-3.638,14.525-2.276
						c5.199,1.361,10.145,5.721,10.957,10.645c0.437,2.646-0.301,5.18-1.451,7.392c-2.728,5.252-7.876,9.098-14.064,10.509
						c-4.26,0.971-8.981,0.78-13.534-0.482c-2.134-0.591-6.91-1.382-8.809-2.663c-2.868-1.935,2.798-0.697,3.897-0.547
						C412.756,408.002,416.367,407.337,419.064,406.851z"/>
				</g>
				<g>
					<path style="fill:#D44459;" d="M505.866,298.524c0,0,5.715,27.065-10.771,27.495c-16.486,0.43-60.888,2.148-60.888,2.148
						l-21.027,61.356l-25.187-9.142c0,0,18.078-67.68,24.892-73.265c6.814-5.585,50.117-9.022,58.47-8.807
						C479.709,298.524,505.866,298.524,505.866,298.524z"/>
					<path style="opacity:0.29;fill:#663BFF;" d="M505.866,298.524c0,0,5.715,27.065-10.771,27.495
						c-16.486,0.43-60.888,2.148-60.888,2.148l-21.027,61.356l-25.187-9.142c0,0,18.078-67.68,24.892-73.265
						c6.814-5.585,50.117-9.022,58.47-8.807C479.709,298.524,505.866,298.524,505.866,298.524z"/>
					<g>
						<polygon style="fill:#F59711;" points="387.109,381.693 412.737,390.743 417.049,382.935 388.844,372.562 						"/>
						<polygon style="opacity:0.3;fill:#D44459;" points="387.109,381.693 412.737,390.743 417.049,382.935 388.844,372.562 						
							"/>
						<path style="opacity:0.27;fill:#F59711;" d="M399.327,383.499c-2.125-1.878-4.045-3.978-5.653-6.317
							c-0.784-1.141-1.515-2.35-2.107-3.619l-2.723-1.002l-1.735,9.132l19.825,7.001
							C404.194,387.278,401.625,385.531,399.327,383.499z"/>
					</g>
				</g>
				<g>
					<g>
						<path style="fill:#D44459;" d="M520.392,299.597c0,0,5.931,28.741-11.177,29.197c-17.108,0.456-63.185,2.281-63.185,2.281
							l-4.849,61.942l-25.879-0.91c0,0,1.531-77.456,8.602-83.387c7.071-5.931,52.008-9.58,60.676-9.352
							C493.247,299.597,520.392,299.597,520.392,299.597z"/>
						<path style="opacity:0.1;fill:#D44459;" d="M434.367,392.172c-0.892-1.831-1.434-3.823-1.908-5.796
							c-0.496-2.064-0.973-4.141-1.412-6.217c-1.04-4.919-1.595-9.924-2.009-14.93c-0.36-4.363-0.66-8.729-1.045-13.09
							c-0.367-4.15-0.706-8.308-0.756-12.477c-0.097-8.097,0.909-16.425,5.611-23.242c3.859-5.595,8.91-10.192,14.592-13.856
							c-10.868,1.569-20.561,3.659-23.538,6.156c-7.071,5.931-8.602,83.387-8.602,83.387l19.416,0.682
							C434.6,392.584,434.471,392.385,434.367,392.172z"/>
						<path style="opacity:0.1;fill:#D44459;" d="M520.392,299.597c0,0-2.451,0-6.104-0.006c-0.013,0.414-0.03,0.827-0.056,1.239
							c-0.112,1.788-0.349,3.572-0.717,5.326c-0.343,1.638-0.742,3.35-1.501,4.852c-1.545,3.055-4.431,5.277-7.259,7.076
							c-2.999,1.908-6.186,3.48-9.516,4.721c-7.111,2.651-14.671,3.963-22.188,4.815c-5.039,0.571-10.095,0.812-15.144,1.249
							c-2.467,0.214-4.942,0.466-7.381,0.906c-0.926,0.167-1.862,0.357-2.755,0.658c-0.362,0.122-0.92,0.297-1.213,0.621
							c5.153-0.203,46.624-1.833,62.656-2.26C526.323,328.338,520.392,299.597,520.392,299.597z"/>
						<g>
							<g>
								<path style="fill:#F59711;" d="M434.647,382.719c-0.006,0-0.012,0-0.018-0.001c-0.138-0.01-0.241-0.129-0.232-0.267
									l0.109-1.494c0.011-0.137,0.109-0.257,0.268-0.23c0.138,0.01,0.241,0.13,0.23,0.268l-0.109,1.492
									C434.887,382.618,434.777,382.719,434.647,382.719z"/>
							</g>
							<g>
								<path style="fill:#F59711;" d="M434.982,378.184c-0.006,0-0.013,0-0.018-0.001c-0.138-0.01-0.241-0.13-0.23-0.268
									l0.23-3.053c0.01-0.138,0.129-0.259,0.268-0.23c0.138,0.01,0.241,0.13,0.23,0.268l-0.23,3.053
									C435.221,378.084,435.112,378.184,434.982,378.184z M435.445,372.078c-0.006,0-0.013,0-0.02-0.001
									c-0.138-0.011-0.24-0.131-0.23-0.268l0.237-3.052c0.01-0.137,0.111-0.251,0.269-0.229c0.138,0.011,0.24,0.131,0.229,0.269
									l-0.237,3.052C435.684,371.978,435.575,372.078,435.445,372.078z M435.92,365.978c-0.006,0-0.013,0-0.02-0.001
									c-0.138-0.011-0.24-0.131-0.229-0.269c0.078-0.993,0.159-2.012,0.243-3.051c0.012-0.138,0.137-0.25,0.27-0.228
									c0.138,0.011,0.24,0.132,0.228,0.27c-0.084,1.037-0.165,2.056-0.243,3.049C436.16,365.878,436.05,365.978,435.92,365.978z
									 M436.41,359.877c-0.007,0-0.014,0-0.02-0.001c-0.138-0.011-0.24-0.132-0.229-0.27l0.25-3.049
									c0.012-0.138,0.134-0.25,0.27-0.228c0.138,0.011,0.24,0.132,0.228,0.27l-0.25,3.049
									C436.649,359.778,436.539,359.877,436.41,359.877z M436.915,353.781c-0.007,0-0.014,0-0.02-0.001
									c-0.138-0.012-0.24-0.133-0.229-0.27l0.259-3.048c0.012-0.137,0.115-0.244,0.27-0.227c0.138,0.012,0.239,0.133,0.228,0.27
									l-0.259,3.046C437.154,353.683,437.044,353.781,436.915,353.781z M437.438,347.686c-0.007,0-0.015,0-0.022-0.001
									c-0.138-0.012-0.239-0.134-0.227-0.27l0.27-3.049c0.013-0.137,0.112-0.246,0.272-0.227c0.138,0.013,0.239,0.134,0.227,0.272
									l-0.271,3.047C437.675,347.589,437.567,347.686,437.438,347.686z M437.988,341.593c-0.008,0-0.016,0-0.023-0.001
									c-0.137-0.013-0.238-0.135-0.226-0.272c0.096-1.031,0.191-2.048,0.286-3.046c0.013-0.138,0.13-0.249,0.273-0.225
									c0.138,0.013,0.238,0.135,0.225,0.272c-0.095,0.998-0.19,2.015-0.286,3.046
									C438.225,341.495,438.116,341.593,437.988,341.593z M438.571,335.502c-0.008,0-0.017,0-0.024-0.001
									c-0.138-0.014-0.238-0.137-0.225-0.273c0.104-1.048,0.208-2.064,0.311-3.046c0.015-0.137,0.143-0.233,0.275-0.223
									c0.137,0.015,0.236,0.138,0.223,0.275c-0.103,0.979-0.206,1.996-0.311,3.042
									C438.807,335.405,438.698,335.502,438.571,335.502z M439.21,329.415c-0.009,0-0.018-0.001-0.027-0.002
									c-0.138-0.015-0.236-0.139-0.221-0.276c0.121-1.082,0.24-2.1,0.356-3.042c0.017-0.137,0.146-0.232,0.278-0.218
									c0.138,0.017,0.234,0.142,0.218,0.278c-0.116,0.94-0.235,1.958-0.356,3.037C439.445,329.32,439.336,329.415,439.21,329.415z
									 M439.972,323.341c-0.012,0-0.023-0.001-0.036-0.003c-0.137-0.02-0.231-0.146-0.211-0.283
									c0.193-1.324,0.373-2.347,0.535-3.039c0.03-0.134,0.169-0.221,0.3-0.186c0.135,0.031,0.218,0.166,0.186,0.3
									c-0.158,0.679-0.336,1.688-0.527,2.998C440.202,323.251,440.094,323.341,439.972,323.341z M442.777,318.889
									c-0.124,0-0.233-0.092-0.248-0.219c-0.018-0.137,0.08-0.262,0.217-0.279c0.781-0.099,1.782-0.202,3.061-0.314
									c0.136-0.018,0.258,0.09,0.271,0.228c0.012,0.137-0.09,0.259-0.228,0.27c-1.271,0.112-2.266,0.214-3.041,0.313
									C442.797,318.888,442.786,318.889,442.777,318.889z M448.883,318.331c-0.13,0-0.239-0.1-0.249-0.231
									c-0.011-0.138,0.093-0.258,0.23-0.268c0.957-0.071,1.98-0.143,3.059-0.217c0.146-0.017,0.257,0.094,0.266,0.232
									c0.01,0.138-0.095,0.257-0.233,0.266c-1.076,0.073-2.098,0.145-3.055,0.217
									C448.896,318.331,448.889,318.331,448.883,318.331z M454.995,317.913c-0.131,0-0.241-0.102-0.249-0.234
									c-0.009-0.138,0.096-0.257,0.233-0.265c0.989-0.063,2.01-0.127,3.056-0.19c0.164,0,0.257,0.098,0.266,0.234
									c0.008,0.139-0.097,0.257-0.234,0.266c-1.046,0.064-2.066,0.127-3.056,0.189C455.006,317.913,455,317.913,454.995,317.913z
									 M461.108,317.539c-0.132,0-0.241-0.103-0.25-0.235c-0.008-0.138,0.098-0.256,0.235-0.265l3.056-0.18
									c0.135-0.005,0.256,0.098,0.265,0.235c0.008,0.138-0.098,0.256-0.235,0.265l-3.056,0.18
									C461.118,317.539,461.113,317.539,461.108,317.539z M467.219,317.184c-0.132,0-0.242-0.103-0.25-0.235
									c-0.008-0.138,0.098-0.256,0.235-0.265l3.054-0.176c0.137-0.009,0.257,0.098,0.265,0.235
									c0.008,0.138-0.098,0.256-0.235,0.265l-3.054,0.176C467.229,317.184,467.224,317.184,467.219,317.184z M473.328,316.832
									c-0.132,0-0.242-0.103-0.25-0.235c-0.008-0.138,0.098-0.256,0.235-0.265l3.056-0.179c0.137-0.01,0.257,0.098,0.265,0.235
									s-0.098,0.256-0.235,0.265l-3.056,0.179C473.338,316.832,473.333,316.832,473.328,316.832z M479.439,316.471
									c-0.132,0-0.241-0.103-0.25-0.235c-0.008-0.138,0.097-0.256,0.235-0.265c1.036-0.063,2.057-0.125,3.055-0.186
									c0.144-0.021,0.257,0.096,0.266,0.233c0.008,0.138-0.097,0.257-0.234,0.265c-0.998,0.064-2.019,0.126-3.057,0.189
									C479.449,316.471,479.444,316.471,479.439,316.471z M485.551,316.089c-0.131,0-0.241-0.102-0.249-0.233
									c-0.01-0.138,0.095-0.257,0.232-0.266c1.056-0.069,2.077-0.139,3.055-0.206c0.142-0.019,0.258,0.094,0.267,0.231
									c0.01,0.138-0.094,0.258-0.232,0.267c-0.979,0.067-2.001,0.137-3.057,0.206
									C485.562,316.089,485.556,316.089,485.551,316.089z M491.662,315.657c-0.13,0-0.239-0.1-0.249-0.23
									c-0.011-0.138,0.092-0.258,0.23-0.269c1.105-0.086,2.128-0.171,3.051-0.255c0.154-0.017,0.259,0.09,0.271,0.227
									c0.013,0.138-0.089,0.259-0.227,0.271c-0.925,0.084-1.949,0.169-3.057,0.255
									C491.675,315.657,491.668,315.657,491.662,315.657z M497.765,315.081c-0.124,0-0.231-0.092-0.248-0.219
									c-0.018-0.137,0.079-0.262,0.217-0.279c1.605-0.204,2.037-0.351,2.151-0.419c0.203-0.122,0.414-0.257,0.631-0.402
									c0.114-0.079,0.27-0.047,0.347,0.067c0.077,0.114,0.047,0.271-0.067,0.347c-0.225,0.151-0.442,0.29-0.652,0.416
									c-0.185,0.111-0.617,0.267-2.347,0.487C497.785,315.08,497.775,315.081,497.765,315.081z M503.02,312.291
									c-0.065,0-0.131-0.025-0.18-0.076c-0.096-0.099-0.094-0.258,0.006-0.354c0.749-0.726,1.406-1.491,1.954-2.275
									c0.079-0.115,0.236-0.141,0.348-0.063c0.113,0.079,0.142,0.235,0.063,0.348c-0.565,0.811-1.244,1.602-2.017,2.35
									C503.145,312.268,503.082,312.291,503.02,312.291z"/>
							</g>
							<g>
								<path style="fill:#F59711;" d="M506.312,307.573c-0.03,0-0.061-0.006-0.091-0.018c-0.129-0.05-0.192-0.195-0.142-0.323
									c0.182-0.466,0.323-0.935,0.419-1.396c0.029-0.135,0.165-0.219,0.296-0.194c0.136,0.028,0.223,0.161,0.194,0.296
									c-0.103,0.489-0.252,0.985-0.444,1.477C506.506,307.513,506.411,307.573,506.312,307.573z"/>
							</g>
						</g>
					</g>
					<g>
						<polygon style="fill:#F59711;" points="414.767,392.901 441.934,393.715 443.663,384.964 413.639,383.674 						"/>
						<path style="opacity:0.27;fill:#F59711;" d="M426.955,390.899c-2.596-1.142-5.065-2.557-7.308-4.295
							c-1.094-0.848-2.159-1.777-3.109-2.805l-2.899-0.125l1.128,9.226l21.015,0.63
							C432.741,393.016,429.763,392.135,426.955,390.899z"/>
					</g>
				</g>
				<g>
					<path style="fill:#FFA18B;" d="M463.134,242.387c0,0-17.621,19.925-20.213,20.759c-2.592,0.834-29.932,5.476-29.932,5.476
						l-1.459,8.754c0,0,33.152,3.243,36.945,0.975c3.793-2.267,26.222-21.214,26.222-21.214L463.134,242.387z"/>
				</g>
				<path style="fill:#50BCFF;" d="M450.9,252.614c0,0,14.618-22.989,21.021-24.654c6.403-1.665,18.592,3.249,11.765,16.008
					c-6.827,12.759-15.534,21.873-15.534,21.873S455.02,264.237,450.9,252.614z"/>
				<path style="opacity:0.38;fill:#50BCFF;" d="M474.367,227.652c-1.757,2.328-3.257,4.85-4.648,7.412
					c-1.725,3.178-3.253,6.46-4.733,9.757c-1.504,3.352-2.894,6.757-4.054,10.243c-0.803,2.411-1.483,4.861-2.006,7.336
					c4.615,2.878,9.226,3.442,9.226,3.442s8.707-9.114,15.534-21.873C489.714,232.701,480.916,227.556,474.367,227.652z"/>
				<g>
					<defs>
						<path id="SVGID_1_" d="M522.282,267.698c-1.818-26.758-3.045-33.414-6.173-37.329c-3.102-3.882-14.545-5.58-22.604-5.896
							c-8.059-0.316-19.819,1.961-23.166,4.255c-3.357,2.3-5.364,12.052-4.846,24.182c0.449,10.507,2.66,21.674,2.571,26.537
							c-0.165,9.027-1.937,12.508-3.225,19.227c10.073,7.01,49.057,10.768,57.423,9.09
							C523.085,298.634,523.162,280.653,522.282,267.698z"/>
					</defs>
					<use xlink:href="#SVGID_1_"  style="overflow:visible;fill:#FFFFFF;"/>
					<clipPath id="SVGID_00000181061801769535570240000004924779487826742401_">
						<use xlink:href="#SVGID_1_"  style="overflow:visible;"/>
					</clipPath>
					<path style="clip-path:url(#SVGID_00000181061801769535570240000004924779487826742401_);fill:#50BCFF;" d="M479.477,230.689
						c-0.251,1.206,0.237,2.512,1.077,3.427c0.842,0.918,2.08,1.363,3.264,1.688c2.294,0.63,7.479-0.047,9.81-2.661
						c3.881,9.218,8.365,19.03,17.425,23.981c2.513,1.373,5.205,2.531,8.023,2.901c2.835,0.372,5.823-0.12,8.016-1.801
						c2.591-1.984,3.762-5.383,3.761-8.717c-0.001-3.327-1.037-6.614-2.22-9.772c-2.029-5.413-4.624-10.771-8.846-14.694
						c-6.36-5.911-15.372-7.641-23.691-7.921c-6.996-0.236-13.977,0.38-20.38,2.64c-6.324,2.232-12.107,6.167-15.888,11.731
						c-4.892,7.199-6.1,17.087-3.115,25.667c0.473,0.059,1.251,0.157,1.653-0.096c4.475-2.815,6.744-8.221,9.534-12.915
						C470.895,239.105,474.964,234.406,479.477,230.689z"/>
					<path style="opacity:0.24;clip-path:url(#SVGID_00000181061801769535570240000004924779487826742401_);fill:#50BCFF;" d="
						M507.252,290.943c-1.174,3.642-2.508,7.405-5.253,10.071c-4.597,4.465-11.877,4.717-17.221,8.254
						c1.387,3.895,5.992,5.421,10.024,6.337c7.955,1.806,16.436,3.199,24.132,0.494c2.599-0.914,5.131-2.367,6.634-4.676
						c1.185-1.82,1.633-4.012,1.971-6.158c1.697-10.759,1.208-21.73,0.589-32.604c-0.65-11.424-1.44-22.84-2.412-34.24
						c-0.276-3.245-0.62-6.644-2.437-9.348c-1.094-1.629-2.754-2.967-4.603-3.644c-2.882-1.055-2.366,1.077-2.199,3.296
						c0.385,5.106,0.417,10.237,0.155,15.35c-0.519,10.137-2.198,20.191-4.595,30.046
						C510.659,279.787,509.041,285.393,507.252,290.943z"/>
					<path style="opacity:0.24;clip-path:url(#SVGID_00000181061801769535570240000004924779487826742401_);fill:#50BCFF;" d="
						M487.148,305.876c-4.246-1.535-8.324-2.943-12.289-5.049c-1.863-0.989-3.769-2.144-4.64-3.896
						c2.213-0.276,4.456-0.033,6.668,0.209c3.587,0.393,7.175,0.786,10.762,1.18c-3.778-1.271-7.313-3.362-10.742-5.313
						c-1.727-0.983-6.556-2.976-5.163-5.742c0.474-0.941,1.544-1.368,2.369-1.934c1.057-0.725,1.203-1.748,0.577-2.872
						c-0.816-1.466-2.407-2.407-3.773-3.293c-1.524-0.989-2.889-2.07-4.191-3.344c-0.723-0.709-1.427-1.469-2.073-2.276
						c-0.281,2.21,0.212,4.517,0.113,6.77c-0.099,2.256-0.808,4.456-1.323,6.672c-1.159,4.995-1.329,10.156-0.501,15.184
						c0.151,0.915,0.347,1.855,0.926,2.625c0.663,0.882,1.751,1.439,2.835,1.903c5.578,2.389,11.895,3.083,18.096,3.585
						C488.533,310.588,491.317,307.383,487.148,305.876z"/>
				</g>
				<g>
					<g>
						<path style="fill:#FFC9B0;" d="M423.215,265.439c1.033-2.566,3.138-4.793,5.602-6.483c0.755-0.517,1.56-0.997,2.445-1.264
							c1.788-0.54,3.876-0.283,5.569,0.106c2.158,0.496,4.146,1.387,6.165,2.156c1.883,0.718,3.765,1.439,5.638,2.174
							c0.426,0.167,0.96,0.505,1.428,0.566c3.839,0.497,27.761,3.581,32.055,3.725c4.401-4.66,11.077-17.1,11.077-17.1
							s11.913,1.453,15.49,8.324c0.041-0.185-14.466,20.554-16.626,21.689c-2.16,1.136-11.945-0.486-23.777-3.552
							c-8.955-2.32-16.695-4.733-19.932-5.77c-0.474,0.127-1.002,0.216-1.589,0.257c-6.261,0.436-5.311-3.121-5.612-3.33l0.16-0.207
							c-1.209,0.426-2.427,0.83-3.657,1.188c-0.497,0.145-1.159,0.232-1.373-0.162c-0.167-0.307,0.078-0.692,0.318-0.993
							c0.804-1.007,1.695-1.963,2.662-2.853c-2.023,1.346-4.046,2.691-6.069,4.037c-0.402,0.268-0.955,0.544-1.323,0.3
							c-0.365-0.242-0.208-0.777,0-1.176c1.008-1.935,2.535-3.688,4.404-5.057c-1.363,1.027-2.725,2.055-4.088,3.082
							c-0.935,0.705-1.871,1.411-2.868,2.041c-0.897,0.567-2.018,1.091-2.967,0.766c-0.124-0.042-0.249-0.108-0.285-0.223
							c-0.033-0.107,0.021-0.226,0.077-0.334c1.171-2.269,3.244-4.107,5.266-5.881c-1.805,1.384-3.609,2.768-5.414,4.153
							c-0.696,0.534-1.564,1.11-2.388,0.911c-0.178-0.043-0.348-0.127-0.44-0.267C423.009,266.029,423.104,265.714,423.215,265.439z
							"/>
						<path style="fill:#FFC9B0;" d="M489.407,265.921c-1.426-1.652-2.33-3.386-2.982-5.212c3.482-5.264,6.77-11.389,6.77-11.389
							s11.913,1.453,15.49,8.324c0.026-0.12-6.055,8.545-10.928,14.97C494.396,271.462,491.352,268.174,489.407,265.921z"/>
						<path style="opacity:0.3;fill:#FFC9B0;" d="M441.052,265.771c1.466,0.176,2.742,0.785,4.152,1.123
							c1.357,0.325,2.776,0.448,4.158,0.693c3.719,0.66,7.244,1.957,10.751,3.108c6.607,2.17,13.361,4.023,20.268,5.504
							c4.188,0.899,8.619,2.095,13.056,1.819c-0.623,0.701-1.103,1.17-1.379,1.315c-2.16,1.136-11.945-0.486-23.777-3.552
							c-8.955-2.32-16.695-4.733-19.932-5.77c-0.474,0.127-1.002,0.216-1.589,0.257c-6.261,0.436-5.311-3.121-5.612-3.33l0.16-0.207
							c-1.209,0.426-2.427,0.83-3.657,1.188c-0.317,0.092-0.7,0.16-0.992,0.095C438.082,267.144,439.552,266.493,441.052,265.771z"
							/>
					</g>
					<g>
						<g>
							<path style="fill:#50BCFF;" d="M484.792,258.878c1.111-1.541,10.014-15.47,13.073-20.655c1.61-2.735,3.415-5.497,6.097-7.549
								c1.902-1.462,7.266-4.764,11.13-0.281c0.204,0.236,0.398,0.487,0.583,0.736c0.203,0.287,0.388,0.58,0.556,0.879
								c2.564,4.444,1.81,10.535,0.291,15.67c-0.296,1.01-0.661,1.992-1.082,2.963c-2.676,6.231-7.176,13.99-11.622,19.652
								C497.888,269.855,487.756,264.503,484.792,258.878z"/>
						</g>
					</g>
					<g>
						<g>
							<path style="opacity:0.38;fill:#50BCFF;" d="M515.81,248.018c-1.142,1.526-2.322,3.023-3.552,4.477
								c-2.073,2.453-4.32,4.762-6.589,7.032c-2.225,2.225-4.515,4.391-6.907,6.438c-0.841,0.719-1.701,1.417-2.572,2.101
								c2.734,1.246,5.462,2.067,7.628,2.227c4.446-5.663,8.947-13.422,11.622-19.652c0.421-0.97,0.786-1.953,1.082-2.963
								c0.101-0.343,0.199-0.69,0.292-1.041C516.481,247.099,516.151,247.563,515.81,248.018z"/>
						</g>
					</g>
				</g>
				<g>
					<defs>
						<path id="XMLID_3_" d="M480.853,216.997l13.729-1.986l1.501,11.315c0.109,0.822-0.126,1.628-0.663,2.28
							c-1.176,1.431-3.672,3.748-7.767,4.226c-4.211,0.492-4.743-1.44-4.684-2.643c0.055-1.11-0.087-2.231-0.292-3.341
							L480.853,216.997z"/>
					</defs>
					<use xlink:href="#XMLID_3_"  style="overflow:visible;fill:#FFC9B0;"/>
					<clipPath id="XMLID_00000066493828998288443560000005196011523216789676_">
						<use xlink:href="#XMLID_3_"  style="overflow:visible;"/>
					</clipPath>
					<path style="clip-path:url(#XMLID_00000066493828998288443560000005196011523216789676_);fill:#FFC9B0;" d="M478.391,224.759
						c11.329,0.43,16.187-10.462,15.864-10.922c-0.401-0.571-1.486-0.538-2.365-0.389c-6.192,1.05-14.823,3.865-15.805,6.175
						C475.104,221.933,476.792,224.699,478.391,224.759z"/>
				</g>
				<g>
					<path d="M504.56,204.462c-0.728-0.031-1.595-0.083-2.137-0.598c-0.515-0.49-0.628-1.292-0.932-1.89
						c-1.001-1.967-3.25-3.021-5.278-1.634c-4.972,3.398-2.629,9.159-2.178,10.07c0.642,1.296,2.004,2.526,3.434,2.962
						c0.475,0.145,1.364,0.323,1.496-0.351c0.078-0.398-0.383-0.775-0.439-1.135c0.958,0.374,1.755,0.812,2.836,0.846
						c1.225,0.038,3.278-0.311,3.895-1.491c0.648-1.238-0.597-1.772-1.529-2.281c1.591,0.059,3.148-2.069,3.714-3.279
						C508.171,204.124,505.542,204.504,504.56,204.462z"/>
					<g>
						<path d="M459.987,179.12c-0.497,0.787-0.727,1.702-0.893,2.608c-0.419,2.301-0.466,4.665-0.137,6.98
							c0.143,1.011,0.367,2.036,0.917,2.91c0.766,1.217,2.082,2.012,3.409,2.644c0.822,0.391,1.782,0.74,2.632,0.409
							c0.567-0.221,0.974-0.714,1.256-1.236c0.983-1.82,0.696-4.005,0.371-6.031c-0.311-1.943-0.64-3.908-1.449-5.714
							c-0.603-1.345-1.501-2.618-2.722-3.515C462.031,177.191,460.841,177.769,459.987,179.12z"/>
					</g>
					<g>
						<path style="fill:#FFC9B0;" d="M481.463,221.309c-8.209,1.98-12.65,0-15.06-2.774c-0.184-0.206-0.347-0.421-0.51-0.637
							c-2.256-3.098-4.104-10.019-4.635-12.666c-0.041-0.225-0.082-0.451-0.133-0.686c0-0.029,0-0.059-0.01-0.078
							c-0.684-3.784-0.919-7.921-0.776-12.225c0.664-18.303,16.03-26.195,29.089-20.166c4.932,2.284,9.158,6.549,11.65,11.686
							c0.194,0.392,0.378,0.794,0.551,1.206C509.429,203.329,497.054,217.574,481.463,221.309z"/>
						<g style="opacity:0.21;">
							<g>
								<path style="fill:#D44459;" d="M467.965,217.515c-0.378,0.49-0.929,0.823-1.562,1.02c-0.184-0.206-0.347-0.421-0.51-0.637
									c-2.256-3.098-4.104-10.019-4.635-12.666c-0.041-0.225-0.082-0.451-0.133-0.686c1.052,0.118,2.022,0.775,2.798,1.48
									c2.573,2.372,4.207,5.539,4.543,8.813C468.568,215.76,468.547,216.75,467.965,217.515z"/>
								<path style="fill:#D44459;" d="M492.258,214.48c0.192-0.145,0.376-0.294,0.55-0.445c2.916-2.524,6.218-7.712,3.256-11.607
									c-1.463-1.924-4.196-2.438-6.355-1.618c-2.158,0.82-3.777,2.738-4.827,4.87c-0.784,1.592-1.303,3.382-1.165,5.192
									c0.138,1.81,1.011,3.636,2.503,4.598C488.186,216.737,490.542,215.777,492.258,214.48z"/>
							</g>
						</g>
					</g>
					<g>
						<path d="M509.535,189.004c-0.245,1.547-0.59,3.08-0.993,4.6c-0.158,0.566-0.82,4.116-1.324,4.282
							c-0.216,0.069-0.432,0.111-0.647,0.097c-0.475-0.028-0.892-0.304-1.237-0.635c-0.691-0.663-1.338-1.52-2.46-1.354
							c-1.611,0.207-2.82,3.854-4.46,3.909c-2,0.069-2.791-1.851-3.366-3.729c0.101-1.961-0.086-2.997,0.46-7.141
							c0.029-0.124,0.029-0.249,0.043-0.373c-0.101-0.18-0.202-0.331-0.288-0.442c-1.237-1.727-3.309-2.362-5.136-3.287
							c-1.208-0.608-2.172-1.575-3.179-2.445c-1.165-1.008-2.187-2.169-2.82-3.578c-0.604-1.354-0.949-2.887-1.367-4.296
							c-2.417,2.845-5.596,5.401-9.078,6.989c-2.402,1.119-5.093,2.197-7.668,2.832c-2.029,0.497-5.179,1.022-6.92-0.442
							c-1.597-1.34-1.525-3.343-1.137-5.221c0.59-2.832,2.561-4.738,4.762-6.548c5.999-4.931,13.682-8.233,21.565-8.619
							c1.726-0.083,3.467-0.028,5.194,0.193c2.273,0.276,4.503,0.829,6.618,1.671c0.734,0.276,1.439,0.594,2.143,0.953
							c0.547,0.29,1.093,0.58,1.626,0.912c1.798,1.077,3.496,2.473,4.949,4.061c2.172,2.334,3.827,5.139,4.546,8.15
							c0.014,0.042,0.014,0.083,0.029,0.124C510.096,182.732,510.025,185.923,509.535,189.004z"/>
						<path style="fill:#004DBE;" d="M504.817,171.392c-1.323,0.497-3.453-0.926-4.56-1.133c-3.093-0.552,0.245,3.854-0.072,4.959
							c-0.345,1.215-1.928,1.271-3.007,1.146c-1.784-0.18-2.69-1.381-4.201-2.058c-1.122-0.497-2.244,0.027-2.561,1.243
							c-0.23,0.856,0.849,3.053,0.216,3.647c-0.95,0.87-3.481-0.539-4.158-1.146c-1.266-1.133-2.244-3.301-1.539-4.959
							c0.187-0.525,1.597-0.677,2.172-0.994c1.18-0.608,2.259-1.381,3.424-2.003c1.654-0.87,3.237-2.058,5.006-2.763
							c0.791-0.318,1.726-0.649,2.705-0.912c0.547,0.29,1.093,0.58,1.626,0.912C501.666,168.408,503.364,169.803,504.817,171.392z"
							/>
						<path style="fill:#004DBE;" d="M496.099,165.466c-0.849,0.415-1.698,0.829-2.604,1.16c-1.971,0.732-3.841,1.547-5.668,2.555
							c-1.582,0.87-3.208,1.741-4.589,2.901c-0.82,0.691-1.813,2.321-2.503,2.321c-1.64,2.404-5.064,2.293-7.438,1.229
							c-1.396-0.621-1.755-1.63-0.173-2.445c1.726-0.884,3.856-0.857,5.654-1.671c1.41-0.649,2.69-1.782,2.144-3.384
							c-0.345-0.995-1.496-2.5,0.245-2.873c1.324-0.276,2.863,1.008,4.172,1.243c1.237,0.221,1.798-0.028,2.518-0.994
							c0.561-0.746,0.878-1.312,1.626-1.713C491.754,164.07,493.984,164.623,496.099,165.466z"/>
					</g>
					<g>
						<path d="M467.6,202.196c0.213,1.311-0.283,2.475-1.107,2.598c-0.825,0.123-1.666-0.84-1.879-2.151
							c-0.213-1.311,0.283-2.475,1.107-2.598C466.545,199.921,467.386,200.885,467.6,202.196z"/>
						<path d="M484.729,199.97c0.221,1.358-0.373,2.576-1.327,2.718c-0.954,0.143-1.906-0.843-2.127-2.202
							c-0.221-1.358,0.373-2.576,1.327-2.718C483.556,197.626,484.508,198.611,484.729,199.97z"/>
						<path style="fill:#C72C19;" d="M471.903,210.548c1.89-0.143,3.791-0.576,5.5-1.373c1.713-0.8,3.164-1.915,4.555-3.15
							c0.117-0.104,0.328,0.032,0.231,0.171c-2.163,3.096-6.473,4.869-10.286,4.727C471.65,210.913,471.655,210.566,471.903,210.548
							z"/>
						<path style="fill:#C72C19;" d="M472.024,207.378c-1.1-0.254-2.219-1.081-2.191-2.268c0.013-0.525,0.253-1.065,0.717-1.364
							c0.361-0.233,0.812-0.303,1.183-0.52c0.945-0.553,0.484-1.525,0.222-2.34c-0.377-1.169-0.671-2.537-1.361-3.578
							c-0.096-0.144-0.389-0.103-0.367,0.096c0.073,0.648,0.321,1.287,0.538,1.902c0.236,0.668,0.467,1.339,0.691,2.011
							c0.112,0.337,0.417,0.882,0.213,1.222c-0.12,0.2-0.415,0.301-0.623,0.387c-0.446,0.185-0.864,0.34-1.188,0.706
							c-0.593,0.668-0.693,1.666-0.309,2.452c0.443,0.904,1.451,1.396,2.443,1.517C472.126,207.617,472.152,207.408,472.024,207.378
							z"/>
						<path d="M467.243,191.539c0.298,0.742-0.791,0.652-2.418,1.112c-1.627,0.46-1.73,1.883-2.221,1.825
							c-0.491-0.058-0.424-2.555,1.679-3.414C465.89,190.405,467.046,191.049,467.243,191.539z"/>
						<path d="M477.408,189.762c-0.149,0.667,1.864,0.392,4.092,0.242c2.227-0.15,3.831,1.439,4.083,0.859
							c0.253-0.58-1.34-2.457-4.044-2.52C478.835,188.279,477.507,189.321,477.408,189.762z"/>
					</g>
					<g>
						<path style="fill:#FFC9B0;" d="M498.872,197.368c1.175-3.02,3.628-5.441,7.141-4.351c1.142,0.354,1.997,1.331,2.392,2.418
							c0.395,1.088,0.38,2.277,0.205,3.417c-0.441,2.877-1.975,5.678-4.501,7.285c-0.956,0.608-2.163,1.042-3.241,0.666
							c-1.478-0.516-2.237-2.093-2.578-3.467C497.873,201.655,498.089,199.379,498.872,197.368z"/>
						<path style="opacity:0.3;fill:#FFC9B0;" d="M502.797,194.581c-0.858,0.861-1.325,2.052-2.148,2.892
							c-0.578,0.591-0.948,1.462-1.937,0.462c-0.009-0.009-0.017-0.025-0.026-0.036c0.06-0.178,0.117-0.357,0.185-0.532
							c1.101-2.828,3.323-5.131,6.486-4.516C504.414,193.215,503.543,193.832,502.797,194.581z"/>
						<path style="fill:#C72C19;" d="M506.189,195.87c-0.329-0.226-0.733-0.321-1.131-0.297c-0.922,0.056-1.705,0.679-2.197,1.402
							c-0.51,0.75-0.862,1.639-1.144,2.492c-0.294,0.891-0.432,1.834-0.374,2.77c0.012,0.186,0.338,0.182,0.34-0.006
							c0.023-1.538,0.635-3.105,1.397-4.435c0.117-0.204,0.254-0.403,0.403-0.594c0.465,0.638,0.735,1.396,0.783,2.176
							c0.058,0.943-0.169,1.797-0.473,2.681c-0.031,0.089,0.093,0.163,0.152,0.082c1.132-1.554,1.06-3.787-0.207-5.243
							c0.272-0.279,0.594-0.506,0.981-0.621c0.605-0.18,1.46,0.013,1.818,0.554c0.067,0.101,0.26,0.02,0.226-0.098
							C506.661,196.383,506.499,196.084,506.189,195.87z"/>
					</g>
				</g>
			</g>
		</g>
		<g>
			<g>
				<g>
					<polygon points="225.79,453.024 221.046,453.024 237.074,291.485 250.272,291.485 					"/>
					<polygon points="491.261,453.024 496.004,453.024 479.977,291.485 466.779,291.485 					"/>
				</g>
				<g>
					<rect x="229.577" y="277.453" style="fill:#004DBE;" width="257.897" height="17.662"/>
					<rect x="229.578" y="277.45" style="opacity:0.45;fill:#004DBE;" width="257.895" height="6.911"/>
					<rect x="223.964" y="272.36" style="fill:#004DBE;" width="269.124" height="8.735"/>
				</g>
			</g>
			<g>
				<g>
					<path style="fill:#94D5FF;" d="M312.055,215.012h70.191c1.378,0,2.611,0.855,3.094,2.145l18.86,50.346h-75.622l-18.562-49.55
						C309.483,216.53,310.535,215.012,312.055,215.012z"/>
					
						<rect x="326.016" y="267.503" transform="matrix(-1 -1.224647e-16 1.224647e-16 -1 763.7198 540.2434)" style="fill:#94D5FF;" width="111.687" height="5.237"/>
					<path style="fill:#50BCFF;" d="M424.404,272.031c2.84-0.563,8.328-1.95,11.448-4.528h1.852v5.237h-17.379
						C421.703,272.534,423.067,272.296,424.404,272.031z"/>
					
						<rect x="326.016" y="267.503" transform="matrix(-1 -1.224647e-16 1.224647e-16 -1 727.6539 540.2434)" style="fill:#50BCFF;" width="75.621" height="5.237"/>
					<g>
						<rect x="371.823" y="269.103" style="opacity:0.8;fill:#50BCFF;" width="21.751" height="2.25"/>
						<rect x="328.471" y="269.103" style="opacity:0.8;fill:#50BCFF;" width="5.025" height="2.25"/>
						<rect x="335.146" y="269.103" style="opacity:0.8;fill:#50BCFF;" width="5.025" height="2.25"/>
					</g>
					<path style="fill:#50BCFF;" d="M309.493,215.012h70.191c1.378,0,2.611,0.855,3.094,2.145l18.86,50.346h-75.621l-18.562-49.55
						C306.921,216.53,307.973,215.012,309.493,215.012z"/>
					<path style="opacity:0.51;fill:#94D5FF;" d="M309.493,215.012h59.136c-28.757,0.73-44.127,1.601-50.038,2.472
						c-5.912,0.871-9.894,2.178-8.862,6.539l-2.274-6.07C306.921,216.53,307.973,215.012,309.493,215.012z"/>
					<path style="opacity:0.35;fill:#50BCFF;" d="M325.641,263.327c15.477,4.2,35.305,3.157,47.674-8.18
						c6.562-6.015,9.755-15.201,9.627-23.979c-0.072-4.947-0.986-11.065-3.288-16.155h0.029c1.378,0,2.611,0.855,3.094,2.145
						l18.86,50.346h-75.621l-1.707-4.556C324.754,263.078,325.199,263.207,325.641,263.327z"/>
					<g>
						<path style="opacity:0.46;fill:#50BCFF;" d="M395.641,270.122c0,0.797,0.646,1.444,1.444,1.444
							c0.797,0,1.444-0.646,1.444-1.444c0-0.797-0.646-1.444-1.444-1.444C396.287,268.678,395.641,269.324,395.641,270.122z"/>
						<path style="opacity:0.8;fill:#50BCFF;" d="M396.119,270.122c0,0.533,0.432,0.966,0.966,0.966
							c0.533,0,0.966-0.432,0.966-0.966c0-0.533-0.432-0.966-0.966-0.966C396.551,269.156,396.119,269.588,396.119,270.122z"/>
					</g>
				</g>
				<g>
					<g>
						<path style="fill:#414379;" d="M362.737,250.534l-5.32-4.268c-0.507-0.407-1.124-0.58-1.651-0.464l-5.533,1.216
							c-1.327,0.292-2.807-1.199-2.504-2.522l1.262-5.517c0.12-0.525-0.049-1.144-0.452-1.653l-4.23-5.348
							c-1.015-1.283-0.367-2.839,1.096-2.633l6.1,0.859c0.581,0.082,1.094-0.127,1.372-0.557l2.918-4.522
							c0.7-1.085,2.581-0.556,3.182,0.895l2.508,6.048c0.239,0.576,0.725,1.066,1.3,1.309l6.034,2.553
							c1.447,0.613,1.962,2.495,0.87,3.186l-4.55,2.879c-0.433,0.274-0.646,0.785-0.569,1.366l0.81,6.1
							C365.575,250.923,364.013,251.558,362.737,250.534z"/>
						<path style="fill:#FFD245;" d="M362.711,248.384l-5.749-4.612c-0.172-0.138-0.382-0.197-0.561-0.158l-5.979,1.314
							c-0.451,0.099-0.953-0.407-0.85-0.856l1.364-5.962c0.041-0.178-0.016-0.388-0.153-0.561l-4.571-5.779
							c-0.345-0.436-0.125-0.964,0.372-0.894l6.591,0.928c0.197,0.028,0.371-0.043,0.466-0.189l3.154-4.886
							c0.238-0.368,0.876-0.189,1.081,0.304l2.71,6.535c0.081,0.196,0.246,0.362,0.441,0.444l6.52,2.759
							c0.491,0.208,0.666,0.847,0.295,1.082l-4.917,3.111c-0.147,0.093-0.219,0.267-0.193,0.464l0.876,6.592
							C363.675,248.516,363.145,248.732,362.711,248.384z"/>
						<path style="fill:#FFFFFF;" d="M358.951,240.71l-1.992-1.598c-0.06-0.048-0.132-0.068-0.194-0.055l-2.072,0.456
							c-0.156,0.034-0.33-0.141-0.295-0.297l0.473-2.066c0.014-0.062-0.006-0.135-0.053-0.195l-1.584-2.003
							c-0.119-0.151-0.043-0.334,0.129-0.31l2.284,0.322c0.068,0.01,0.129-0.015,0.161-0.066l1.093-1.693
							c0.082-0.128,0.304-0.065,0.374,0.105l0.939,2.265c0.028,0.068,0.085,0.125,0.153,0.154l2.259,0.956
							c0.17,0.072,0.231,0.294,0.102,0.375l-1.704,1.078c-0.051,0.032-0.076,0.092-0.067,0.161l0.304,2.284
							C359.285,240.756,359.101,240.831,358.951,240.71z"/>
					</g>
					<path style="fill:#FFFFFF;" d="M341.316,250.995c1.57,5.497,6.733,9.746,11.532,9.489c4.799-0.256,7.418-4.92,5.849-10.417
						c-1.569-5.497-6.733-9.745-11.532-9.489C342.365,240.834,339.746,245.498,341.316,250.995z"/>
					<path style="fill:#D44459;" d="M342.902,250.91c1.283,4.493,5.503,7.966,9.427,7.757c3.923-0.209,6.064-4.022,4.781-8.515
						c-1.283-4.493-5.503-7.966-9.427-7.757C343.76,242.604,341.619,246.417,342.902,250.91z"/>
					<path style="fill:#FFD245;" d="M355.36,249.846c-0.094-0.224-0.322-0.294-0.516-0.136c-0.672,0.548-1.439-0.841-1.764-1.238
						c-0.68-0.831-1.36-1.661-2.04-2.492c-0.264-0.323-0.934-0.168-0.992,0.262c-0.079,0.582-0.038,1.151,0.044,1.715
						c-0.095-0.145-0.182-0.297-0.283-0.437c-0.372-0.513-0.965-1.005-1.633-0.741c-0.712,0.282-0.738,1.105-0.735,1.76
						c0.005,1.596,0.431,3.161,0.899,4.674c0.12,0.386,0.251,0.768,0.376,1.152c0.112,0.344,0.181,0.762,0.338,1.09
						c-0.027-0.012-0.053-0.024-0.078-0.038c-0.139-0.079-0.262-0.196-0.38-0.301c-0.259-0.23-0.503-0.477-0.729-0.739
						c-0.528-0.611-0.964-1.327-1.271-2.074c-0.244-0.595-0.693-1.651-0.207-2.224c0.237-0.279-0.125-0.647-0.403-0.403
						c-1.03,0.903-0.347,2.621,0.118,3.643c0.304,0.668,0.713,1.285,1.184,1.847c0.403,0.481,0.9,1.062,1.506,1.282
						c0.585,0.213,1.281-0.002,1.354-0.698c0.038-0.363-0.109-0.751-0.201-1.097c-0.118-0.445-0.243-0.889-0.369-1.332
						c-0.461-1.623-0.98-3.244-0.939-4.952c0.003-0.109,0.001-0.232,0.015-0.342l0.001-0.011c0.056,0.062,0.128,0.13,0.164,0.178
						c0.279,0.37,0.515,0.783,0.736,1.19c0.449,0.826,0.788,1.697,1.038,2.603c0.189,0.686,1.111,0.486,1.175-0.159
						c0.123-1.246-0.278-2.444-0.48-3.658c0.595,0.748,1.195,1.494,1.845,2.181c0.39,0.412,0.95,0.748,1.538,0.609
						C355.174,250.842,355.578,250.366,355.36,249.846z"/>
				</g>
			</g>
			<g>
				<g>
					<path style="fill:#94D5FF;" d="M288.791,229.896c-3.052-2.512-3.3-7.178-2.231-10.687c0.549-1.801,1.109-3.718,1.347-5.589
						c0.196-1.541,0.352-3.255-0.2-4.751c0.413,0.667,0.886,1.133,1.309,1.796c0.655,1.027,1.056,2.13,1.437,3.278
						c0.596,1.797,1.049,3.549,1.048,5.455c-0.001,1.817-0.455,3.584-0.75,5.368c-0.197,1.189-0.346,2.402-0.75,3.54
						C289.883,228.64,289.289,230.306,288.791,229.896z"/>
					<path style="fill:#94D5FF;" d="M286.044,230.207c-3.657-1.487-6.273-3.914-7.563-7.31c-0.56-1.476-0.928-2.987-1.204-4.535
						c-0.134-0.755-0.343-1.551-0.359-2.321c0.013,0.43,0.393,0.802,0.67,1.105c0.618,0.675,1.325,1.233,2.015,1.822
						c0.765,0.652,1.484,1.286,2.322,1.854c0.892,0.604,1.859,1.175,2.665,1.898c1.587,1.423,2.894,3.235,3.44,5.32
						c0.198,0.756,0.118,1.74-0.201,2.024C287.452,230.397,286.686,230.468,286.044,230.207z"/>
					<path style="fill:#94D5FF;" d="M288.676,229.782c-0.562-0.845,0.338-2.446,0.806-3.1c1.151-1.611,2.905-2.926,4.641-3.858
						c1.93-1.036,4.04-1.73,6.099-2.46c0.876-0.31,1.809-0.58,2.584-1.11c0.41-0.28,1.039-0.688,1.157-1.209
						c-0.009,2.271-1.652,4.253-3.049,5.896c-1.455,1.71-3.066,3.012-5.103,3.952c-1.225,0.565-2.423,1.054-3.69,1.495
						c-0.722,0.252-1.459,0.497-2.222,0.535C289.451,229.945,288.905,230.126,288.676,229.782z"/>
					<path style="fill:#004DBE;" d="M302.547,203.859c-1.779,1.771-3.2,3.908-4.556,6.011c-1.432,2.222-2.741,4.523-3.918,6.89
						c-2.29,4.604-4.136,9.522-5.137,14.572c-0.041,0.205,0.253,0.29,0.316,0.087c1.525-4.938,3.27-9.764,5.594-14.387
						c1.117-2.223,2.35-4.388,3.693-6.483c1.397-2.178,3.01-4.209,4.399-6.389C303.09,203.92,302.745,203.662,302.547,203.859z"/>
					<path style="fill:#004DBE;" d="M286.105,217.894c-1.227-4.087-2.896-8.399-5.971-11.463c-0.101-0.1-0.295,0.036-0.204,0.157
						c2.616,3.507,4.266,7.491,5.421,11.689c1.231,4.473,1.6,8.979,2.088,13.57c0.029,0.275,0.401,0.276,0.429,0
						C288.346,227.224,287.433,222.315,286.105,217.894z"/>
					<path style="fill:#D44459;" d="M279.07,210.02c-0.768,0.023-1.72-0.261-2.357-0.697c-0.573-0.392-0.818-1.014-1.01-1.655
						c-0.232-0.777-0.669-1.278-1.28-1.799c-0.809-0.689-1.688-1.192-2.754-1.323c-0.202-0.025-0.776,0.034-0.836-0.228
						c-0.077-0.334,0.784-0.825,1-0.932c0.699-0.346,1.561-0.514,2.337-0.523c0.566-0.006,1.164,0.315,1.707,0.24
						c-0.599-0.459-1.042-1.419-1.091-2.149c-0.048-0.714,0.197-2.18,1.01-2.463c0.595-0.207,0.576,0.721,0.649,1.097
						c0.134,0.691,0.423,1.792,0.967,2.262c-0.005-1.06,0.58-2.62,1.684-2.962c0.063,0.677-0.464,1.454-0.201,2.138
						c0.213-0.414,0.468-0.771,0.848-1.078c0.23-0.186,0.59-0.623,0.916-0.599c-0.212,0.454-0.219,1.11-0.242,1.608
						c-0.049,1.091,0.829,1.518,1.515,2.219c0.37,0.378,0.836,0.691,1.073,1.177c0.352,0.721,0.345,1.692,0.238,2.462
						C283.058,208.144,281.917,209.934,279.07,210.02z"/>
					<path style="fill:#D44459;" d="M308.352,200.72c0.133-0.044,0.397-0.053,0.435-0.208c0.112-0.454-1.345-0.682-1.577-0.732
						c-0.519-0.111-1.06-0.07-1.579,0.029c-0.172,0.033-0.476,0.201-0.546,0.014c-0.063-0.168,0.288-0.714,0.357-0.86
						c0.111-0.233,0.333-0.528,0.292-0.798c-0.644-0.106-1.887,0.557-2.022,1.218c-0.369-0.516-0.501-1.195-0.91-1.712
						c-0.202-0.256-0.465-0.565-0.773-0.693c-0.155-0.064-0.578-0.154-0.733-0.031c-0.151,0.12-0.104,0.444-0.091,0.611
						c0.043,0.578,0.139,1.213-0.004,1.795c-0.184,0.744-0.724,0.906-1.32,1.253c-0.387,0.225-0.753,0.559-1.041,0.9
						c-0.43,0.507-0.713,1.128-0.753,1.796c-0.078,1.286,0.69,2.487,1.653,3.275c0.265,0.217,0.551,0.408,0.853,0.569
						c1.882,1.001,4.704,1.454,5.811-0.866c0.48-1.007,0.455-2.02,0.373-3.102c-0.013-0.174-0.021-0.358,0.058-0.513
						c0.152-0.301,0.54-0.43,0.844-0.5c0.246-0.057,0.697-0.166,0.292-0.41c-0.325-0.196-0.787-0.054-1.141-0.072
						c0.272-0.274,0.553-0.463,0.877-0.654C307.918,200.9,308.118,200.797,308.352,200.72z"/>
				</g>
				<g>
					<path style="fill:#FFD245;" d="M303.484,253.228c0-4.758-2.281-7.971-5.806-9.808c-2.34-1.219-3.902-3.534-3.902-6.172v-7.562
						H284v7.562c0,2.638-1.562,4.953-3.902,6.172c-3.525,1.836-5.806,5.05-5.806,9.808c0,3.154,1.005,6.512,2.708,9.435
						c1.547,2.654,5.24,5.675,5.24,8.747v0h13.295l0,0c0-3.072,3.693-6.093,5.24-8.747
						C302.479,259.74,303.484,256.382,303.484,253.228z"/>
					<path style="fill:#F59711;" d="M294.205,230.961h-10.634c-0.343,0-0.622-0.278-0.622-0.622v-0.554
						c0-0.343,0.278-0.622,0.622-0.622h10.634c0.344,0,0.622,0.278,0.622,0.622v0.554
						C294.827,230.682,294.548,230.961,294.205,230.961z"/>
					<path style="fill:#F59711;" d="M295.896,270.759H281.88c-0.336,0-0.609,0.273-0.609,0.609v0.542
						c0,0.336,0.273,0.609,0.609,0.609h14.016c0.336,0,0.609-0.273,0.609-0.609v-0.542
						C296.505,271.032,296.232,270.759,295.896,270.759z"/>
				</g>
			</g>
		</g>
	</g>
</g>
</svg>
